<?xml version="1.0" standalone="no"?>
<!DOCTYPE svg PUBLIC "-//W3C//DTD SVG 1.1//EN" "http://www.w3.org/Graphics/SVG/1.1/DTD/svg11.dtd" >
<svg xmlns="http://www.w3.org/2000/svg" xmlns:xlink="http://www.w3.org/1999/xlink" version="1.1">
<metadata>
Created by FontForge 20150318 at Fri May  8 16:43:04 2015
 By uniteet7
Copyright 2006 House Industries/Brand Design Co., Inc. All Rights Reserved.
</metadata>
<defs>
<font id="UnitedSansSemiCond-Medium" horiz-adv-x="445" >
  <font-face 
    font-family="United Sans SmCd Md"
    font-weight="500"
    font-stretch="normal"
    units-per-em="1000"
    panose-1="0 0 0 0 0 0 0 0 0 0"
    ascent="760"
    descent="-240"
    x-height="488"
    cap-height="690"
    bbox="-40 -171 864 864"
    underline-thickness="50"
    underline-position="-50"
    unicode-range="U+0020-FB02"
  />
<missing-glyph horiz-adv-x="567" 
d="M30 772h507v-854h-507v854zM224 322v-139h69v116l21 21h82l60 60v231l-79 79h-196l-77 -77v-103h69v80l42 42h128l43 -43v-186l-20 -21h-82zM224 115v-115h69v115h-69z" />
    <glyph glyph-name=".notdef" horiz-adv-x="567" 
d="M30 772h507v-854h-507v854zM224 322v-139h69v116l21 21h82l60 60v231l-79 79h-196l-77 -77v-103h69v80l42 42h128l43 -43v-186l-20 -21h-82zM224 115v-115h69v115h-69z" />
    <glyph glyph-name="eth" unicode="&#xf0;" horiz-adv-x="436" 
d="M130 0l-75 75v338l75 75h115l68 -68v127l-130 130v13h72l115 -115l60 60h12v-60l-62 -62v-438l-75 -75h-175zM161 53h113l39 40v262l-80 81h-72l-40 -40v-303z" />
    <glyph glyph-name="Lslash" unicode="&#x141;" horiz-adv-x="385" 
d="M22 281v65l59 29v315h69v-280l109 54v-65l-109 -54v-286h212v-59h-281v310z" />
    <glyph glyph-name="lslash" unicode="&#x142;" horiz-adv-x="206" 
d="M12 301v61l58 29v299h66v-266l58 29v-60l-58 -29v-364h-66v330z" />
    <glyph glyph-name="Scaron" unicode="&#x160;" horiz-adv-x="441" 
d="M186 746l-73 73v29h37l65 -65h10l65 65h38v-29l-74 -73h-68zM122 0l-77 77v103h69v-80l42 -42h127l43 43v186l-33 33h-177l-68 69v222l79 79h189l78 -77v-102h-70v79l-42 42h-121l-44 -43v-177l33 -33h177l69 -69v-231l-79 -79h-195z" />
    <glyph glyph-name="scaron" unicode="&#x161;" horiz-adv-x="411" 
d="M172 542l-73 73v29h37l65 -65h10l65 65h38v-29l-74 -73h-68zM114 0l-66 66v76h66v-58l31 -31h115l36 36v108l-21 22h-168l-56 56v142l72 71h170l67 -66v-75h-67v58l-31 31h-108l-37 -37v-107l21 -21h168l57 -57v-142l-72 -72h-177z" />
    <glyph glyph-name="Yacute" unicode="&#xdd;" horiz-adv-x="423" 
d="M176 0v229l-164 461h74l127 -380l130 380h68l-165 -461v-229h-70zM169 739v32l78 78h45v-32l-78 -78h-45z" />
    <glyph glyph-name="yacute" unicode="&#xfd;" horiz-adv-x="366" 
d="M134 0l-122 488h66l107 -446l107 446h62l-150 -602l-57 -57h-121v53h91l34 34l22 84h-39zM141 535v32l78 78h45v-32l-78 -78h-45z" />
    <glyph glyph-name="Thorn" unicode="&#xde;" horiz-adv-x="448" 
d="M67 0v690h70v-124h199l79 -79v-251l-79 -79h-199v-157h-70zM137 215h165l44 44v205l-44 44h-165v-293z" />
    <glyph glyph-name="thorn" unicode="&#xfe;" 
d="M65 -171v861h66v-270l69 68h115l75 -75v-338l-75 -75h-120l-64 64v-235h-66zM208 53h75l40 40v303l-40 40h-72l-80 -80v-227z" />
    <glyph glyph-name="Zcaron" unicode="&#x17d;" horiz-adv-x="389" 
d="M160 746l-73 73v29h37l65 -65h10l65 65h38v-29l-74 -73h-68zM31 0v50l248 581h-243v59h318v-50l-248 -581h252v-59h-327z" />
    <glyph glyph-name="zcaron" unicode="&#x17e;" horiz-adv-x="349" 
d="M140 542l-73 73v29h37l65 -65h10l65 65h38v-29l-74 -73h-68zM28 0v42l214 392h-210v54h285v-42l-214 -392h216v-54h-291z" />
    <glyph glyph-name="onehalf" unicode="&#xbd;" horiz-adv-x="645" 
d="M29 347v45h78v253h-78v45h134v-298h74v-45h-208zM133 0l320 690h55l-320 -690h-55zM378 1v138l44 45h114l20 20v67l-27 27h-68l-26 -26v-36h-56v56l52 52h129l52 -53v-111l-44 -44h-113l-20 -20v-68h176v-47h-233z" />
    <glyph glyph-name="onequarter" unicode="&#xbc;" horiz-adv-x="653" 
d="M29 347v45h78v253h-78v45h134v-298h74v-45h-208zM133 0l320 690h55l-320 -690h-55zM539 1v83h-177v36l68 224h55l-61 -213h115v213h55v-213h37v-47h-37v-83h-55z" />
    <glyph glyph-name="onesuperior" unicode="&#xb9;" horiz-adv-x="259" 
d="M29 347v45h78v253h-78v45h134v-298h74v-45h-208z" />
    <glyph glyph-name="threequarters" unicode="&#xbe;" horiz-adv-x="671" 
d="M87 347l-53 51v55h57v-36l26 -26h71l30 29v59l-19 19h-102v44h102l19 19v58l-27 27h-74l-26 -26v-38h-57v56l53 52h135l52 -53v-83l-33 -33l33 -33v-89l-52 -52h-135zM151 0l320 690h55l-320 -690h-55zM557 1v83h-177v36l68 224h55l-61 -213h115v213h55v-213h37v-47h-37
v-83h-55z" />
    <glyph glyph-name="threesuperior" unicode="&#xb3;" horiz-adv-x="310" 
d="M87 347l-53 51v55h57v-36l26 -26h71l30 29v59l-19 19h-102v44h102l19 19v58l-27 27h-74l-26 -26v-38h-57v56l53 52h135l52 -53v-83l-33 -33l33 -33v-89l-52 -52h-135z" />
    <glyph glyph-name="twosuperior" unicode="&#xb2;" horiz-adv-x="300" 
d="M34 347v138l44 45h114l20 20v67l-27 27h-68l-26 -26v-36h-56v56l52 52h129l52 -53v-111l-44 -44h-113l-20 -20v-68h176v-47h-233z" />
    <glyph glyph-name="minus" unicode="&#x2212;" horiz-adv-x="284" 
d="M12 314v61h260v-61h-260z" />
    <glyph glyph-name="multiply" unicode="&#xd7;" horiz-adv-x="365" 
d="M66 187l-39 39l116 116l-116 117l40 39l115 -117l117 117l39 -39l-117 -117l117 -116l-39 -39l-117 116z" />
    <glyph glyph-name="space" unicode=" " horiz-adv-x="191" 
 />
    <glyph glyph-name="exclam" unicode="!" horiz-adv-x="216" 
d="M73 183v507h70v-507h-70zM73 0v114h70v-114h-70z" />
    <glyph glyph-name="quotedbl" unicode="&#x22;" horiz-adv-x="290" 
d="M180 441v249h59v-249h-59zM50 441v249h60v-249h-60z" />
    <glyph glyph-name="numbersign" unicode="#" horiz-adv-x="426" 
d="M100 177v120h-73v53h73v168h-73v53h73v119h56v-119h113v119h57v-119h73v-53h-73v-168h73v-53h-73v-120h-57v120h-113v-120h-56zM156 350h113v168h-113v-168z" />
    <glyph glyph-name="dollar" unicode="$" horiz-adv-x="442" 
d="M123 20l-77 77v101h69v-78l43 -42h124l45 44v166l-34 33h-177l-68 68v202l79 79h62v96h64v-96h64l77 -77v-100h-70v76l-43 43h-119l-44 -44v-153l33 -34h177l68 -67v-215l-78 -79h-65v-97h-65v97h-65z" />
    <glyph glyph-name="percent" unicode="%" horiz-adv-x="607" 
d="M92 362l-58 58v212l58 58h121l57 -58v-212l-57 -58h-121zM121 409h62l28 28v178l-28 28h-62l-28 -28v-178zM394 0l-58 58v212l58 58h121l58 -58v-212l-58 -58h-121zM424 47h61l28 28v178l-28 28h-61l-28 -28v-178zM115 0l320 690h55l-320 -690h-55z" />
    <glyph glyph-name="ampersand" unicode="&#x26;" horiz-adv-x="486" 
d="M132 0l-77 77v213l67 67l-66 67v189l77 77h203l77 -77v-92h-70v69l-42 42h-134l-41 -42v-149l53 -54h294v-59h-61v-251l-78 -77h-202zM167 59h133l42 42v227h-161l-56 -56v-171z" />
    <glyph glyph-name="quotesingle" unicode="'" horiz-adv-x="160" 
d="M50 441v249h60v-249h-60z" />
    <glyph glyph-name="parenleft" unicode="(" horiz-adv-x="259" 
d="M149 -56l-81 81v639l81 81h77v-58h-43l-45 -46v-593l45 -46h43v-58h-77z" />
    <glyph glyph-name="parenright" unicode=")" horiz-adv-x="259" 
d="M191 25l-81 -81h-77v58h43l45 46v593l-45 46h-43v58h77l81 -81v-639z" />
    <glyph glyph-name="asterisk" unicode="*" horiz-adv-x="323" 
d="M99 417l-42 31l75 90l-113 29l17 49l107 -44l-9 118h54l-8 -118l107 44l16 -49l-113 -29l75 -90l-41 -31l-63 99z" />
    <glyph glyph-name="plus" unicode="+" horiz-adv-x="337" 
d="M11 316v57h129v148h58v-148h128v-57h-128v-148h-58v148h-129z" />
    <glyph glyph-name="comma" unicode="," horiz-adv-x="179" 
d="M50 -95v39h25l9 9v47h-34v107h79v-167l-35 -35h-44z" />
    <glyph glyph-name="hyphen" unicode="-" horiz-adv-x="232" 
d="M12 314v61h208v-61h-208z" />
    <glyph glyph-name="period" unicode="." horiz-adv-x="178" 
d="M49 0v105h80v-105h-80z" />
    <glyph glyph-name="slash" unicode="/" horiz-adv-x="260" 
d="M8 -63l182 815h63l-184 -815h-61z" />
    <glyph glyph-name="zero" unicode="0" horiz-adv-x="484" 
d="M141 0l-81 81v528l81 81h202l81 -81v-528l-81 -81h-202zM175 59h134l45 45v482l-45 45h-134l-45 -45v-482z" />
    <glyph glyph-name="one" unicode="1" horiz-adv-x="362" 
d="M43 0v53h113v584h-113v53h183v-637h107v-53h-290z" />
    <glyph glyph-name="two" unicode="2" horiz-adv-x="425" 
d="M45 0v292l69 68h168l33 33v196l-43 43h-115l-42 -42v-79h-70v102l78 77h183l79 -79v-240l-69 -69h-168l-33 -33v-210h267v-59h-337z" />
    <glyph glyph-name="three" unicode="3" horiz-adv-x="455" 
d="M122 0l-79 79v114h69v-90l44 -44h133l42 42v171l-56 56h-158v59h159l54 54v149l-42 42h-132l-44 -45v-89h-69v113l79 79h201l77 -77v-189l-67 -67l67 -67v-213l-77 -77h-201z" />
    <glyph glyph-name="four" unicode="4" horiz-adv-x="452" 
d="M302 0v195h-281v50l100 445h66l-92 -434h207v434h70v-434h54v-61h-54v-195h-70z" />
    <glyph glyph-name="five" unicode="5" horiz-adv-x="440" 
d="M126 0l-76 77v116h70v-94l42 -41h122l43 43v250l-33 33h-121l-57 -57h-66v363h341v-59h-271v-235l46 46h162l69 -68v-295l-79 -79h-192z" />
    <glyph glyph-name="six" unicode="6" horiz-adv-x="474" 
d="M141 0l-81 81v528l81 81h202l78 -78v-108h-70v85l-42 42h-134l-45 -45v-212l45 46h170l77 -77v-262l-82 -81h-199zM175 59h131l46 45v216l-41 41h-128l-53 -53v-204z" />
    <glyph glyph-name="seven" unicode="7" horiz-adv-x="381" 
d="M136 0v245l151 385h-275v60h350v-48l-156 -397v-245h-70z" />
    <glyph glyph-name="eight" unicode="8" horiz-adv-x="479" 
d="M132 0l-77 77v214l67 67l-66 67v188l77 77h213l78 -77v-188l-67 -67l67 -67v-214l-77 -77h-215zM167 59h145l42 42v172l-55 56h-118l-56 -56v-172zM179 388h121l54 54v148l-42 42h-145l-41 -42v-148z" />
    <glyph glyph-name="nine" unicode="9" horiz-adv-x="474" 
d="M131 0l-78 78v114h69v-91l43 -42h133l46 45v227l-46 -46h-169l-77 76v248l81 81h199l82 -81v-528l-82 -81h-201zM163 343h127l54 54v189l-46 45h-131l-45 -45v-202z" />
    <glyph glyph-name="colon" unicode=":" horiz-adv-x="188" 
d="M54 0v105h80v-105h-80zM54 307v106h80v-106h-80z" />
    <glyph glyph-name="semicolon" unicode=";" horiz-adv-x="190" 
d="M56 -95v39h25l9 9v47h-34v107h79v-167l-35 -35h-44zM56 306v107h79v-107h-79z" />
    <glyph glyph-name="less" unicode="&#x3c;" horiz-adv-x="375" 
d="M339 158l-319 154v65l319 155v-64l-259 -124l259 -123v-63z" />
    <glyph glyph-name="equal" unicode="=" horiz-adv-x="356" 
d="M33 395v58h290v-58h-290zM33 233v58h290v-58h-290z" />
    <glyph glyph-name="greater" unicode="&#x3e;" horiz-adv-x="375" 
d="M355 312l-319 -154v63l259 123l-259 124v64l319 -155v-65z" />
    <glyph glyph-name="question" unicode="?" horiz-adv-x="417" 
d="M149 183v139l60 60h82l20 21v186l-43 43h-128l-42 -42v-80h-69v103l77 77h196l79 -79v-231l-60 -60h-82l-21 -21v-116h-69zM149 0v115h69v-115h-69z" />
    <glyph glyph-name="at" unicode="@" horiz-adv-x="709" 
d="M160 -124l-105 105v528l105 105h389l105 -105v-437l-72 -72h-124l-3 75l-74 -75h-122l-72 72v143l72 73h183v109l-39 39h-103l-36 -36v-54h-68v70l73 72h164l75 -75v-362h40l39 38v402l-70 70h-326l-70 -70v-493l70 -70h348v-52h-379zM289 53h82l71 70v114h-150l-39 -38
v-110z" />
    <glyph glyph-name="A" unicode="A" 
d="M14 0l157 690h103l157 -690h-69l-44 201h-194l-43 -201h-67zM221 646l-84 -384h168z" />
    <glyph glyph-name="B" unicode="B" horiz-adv-x="480" 
d="M67 0v690h281l77 -77v-188l-67 -67l67 -67v-214l-77 -77h-281zM137 59h176l42 42v172l-56 56h-162v-270zM137 388h164l54 54v148l-42 42h-176v-244z" />
    <glyph glyph-name="C" unicode="C" horiz-adv-x="450" 
d="M141 0l-81 81v528l81 81h183l79 -79v-117h-69v93l-44 44h-115l-45 -45v-482l45 -45h115l44 44v96h69v-120l-79 -79h-183z" />
    <glyph glyph-name="D" unicode="D" horiz-adv-x="482" 
d="M67 0v690h274l81 -81v-528l-81 -81h-274zM137 59h170l45 45v482l-45 45h-170v-572z" />
    <glyph glyph-name="E" unicode="E" horiz-adv-x="409" 
d="M67 0v690h303v-59h-233v-255h217v-58h-217v-259h235v-59h-305z" />
    <glyph glyph-name="F" unicode="F" horiz-adv-x="382" 
d="M67 0v690h297v-59h-227v-260h211v-59h-211v-312h-70z" />
    <glyph glyph-name="G" unicode="G" horiz-adv-x="471" 
d="M141 0l-81 81v528l81 81h194l77 -77v-103h-70v80l-41 41h-126l-45 -45v-482l45 -45h126l45 45v188h-118v59h188v-270l-81 -81h-194z" />
    <glyph glyph-name="H" unicode="H" horiz-adv-x="487" 
d="M67 0v690h70v-315h213v315h70v-690h-70v311h-213v-311h-70z" />
    <glyph glyph-name="I" unicode="I" horiz-adv-x="332" 
d="M33 0v53h98v584h-98v53h266v-53h-98v-584h98v-53h-266z" />
    <glyph glyph-name="J" unicode="J" horiz-adv-x="312" 
d="M14 0v59h118l46 45v586h70v-609l-82 -81h-152z" />
    <glyph glyph-name="K" unicode="K" horiz-adv-x="469" 
d="M374 0l-138 341l-100 -178v-163h-70v690h70v-422l228 422h73l-156 -287l167 -403h-74z" />
    <glyph glyph-name="L" unicode="L" horiz-adv-x="371" 
d="M67 0v690h70v-631h211v-59h-281z" />
    <glyph glyph-name="M" unicode="M" horiz-adv-x="657" 
d="M67 0v690h109l152 -626l152 626h110v-690h-66v636l-158 -636h-81l-157 636v-636h-61z" />
    <glyph glyph-name="N" unicode="N" horiz-adv-x="495" 
d="M67 0v690h65l234 -547v547h62v-690h-65l-234 550v-550h-62z" />
    <glyph glyph-name="O" unicode="O" horiz-adv-x="484" 
d="M141 0l-81 81v528l81 81h202l81 -81v-528l-81 -81h-202zM175 59h134l45 45v482l-45 45h-134l-45 -45v-482z" />
    <glyph glyph-name="P" unicode="P" horiz-adv-x="446" 
d="M67 0v690h269l79 -79v-251l-79 -79h-199v-281h-70zM137 339h165l44 44v205l-44 44h-165v-293z" />
    <glyph glyph-name="Q" unicode="Q" horiz-adv-x="484" 
d="M362 -142l-87 86v56h-134l-81 81v528l81 81h202l81 -81v-528l-80 -81v-33l63 -64zM175 59h134l45 45v482l-45 45h-134l-45 -45v-482z" />
    <glyph glyph-name="R" unicode="R" horiz-adv-x="476" 
d="M67 0v690h277l79 -79v-225l-73 -73l78 -313h-71l-74 304h-146v-304h-70zM137 363h171l45 45v180l-44 44h-172v-269z" />
    <glyph glyph-name="S" unicode="S" horiz-adv-x="441" 
d="M122 0l-77 77v103h69v-80l42 -42h127l43 43v186l-33 33h-177l-68 69v222l79 79h189l78 -77v-102h-70v79l-42 42h-121l-44 -43v-177l33 -33h177l69 -69v-231l-79 -79h-195z" />
    <glyph glyph-name="T" unicode="T" horiz-adv-x="403" 
d="M166 0v631h-150v59h371v-59h-151v-631h-70z" />
    <glyph glyph-name="U" unicode="U" horiz-adv-x="477" 
d="M145 0l-81 81v609h70v-586l45 -45h118l46 45v586h70v-609l-82 -81h-186z" />
    <glyph glyph-name="V" unicode="V" horiz-adv-x="411" 
d="M154 0l-140 690h70l124 -636l123 636h66l-139 -690h-104z" />
    <glyph glyph-name="W" unicode="W" horiz-adv-x="648" 
d="M120 0l-101 690h68l86 -626l107 626h95l108 -626l83 626h63l-100 -690h-94l-108 626l-108 -626h-99z" />
    <glyph glyph-name="X" unicode="X" horiz-adv-x="437" 
d="M24 0l143 354l-139 336h71l119 -295l119 295h69l-142 -337l147 -353h-71l-124 307l-122 -307h-70z" />
    <glyph glyph-name="Y" unicode="Y" horiz-adv-x="423" 
d="M176 0v229l-164 461h74l127 -380l130 380h68l-165 -461v-229h-70z" />
    <glyph glyph-name="Z" unicode="Z" horiz-adv-x="389" 
d="M31 0v50l248 581h-243v59h318v-50l-248 -581h252v-59h-327z" />
    <glyph glyph-name="bracketleft" unicode="[" horiz-adv-x="259" 
d="M70 -56v801h156v-58h-87v-685h87v-58h-156z" />
    <glyph glyph-name="backslash" unicode="\" horiz-adv-x="260" 
d="M70 752l182 -815h-61l-184 815h63z" />
    <glyph glyph-name="bracketright" unicode="]" horiz-adv-x="259" 
d="M189 745v-801h-156v58h87v685h-87v58h156z" />
    <glyph glyph-name="asciicircum" unicode="^" horiz-adv-x="363" 
d="M21 359l120 331h81l120 -331h-65l-95 283l-97 -283h-64z" />
    <glyph glyph-name="underscore" unicode="_" horiz-adv-x="374" 
d="M-6 -88v47h385v-47h-385z" />
    <glyph glyph-name="grave" unicode="`" horiz-adv-x="245" 
d="M139 535l-78 78v32h45l78 -78v-32h-45z" />
    <glyph glyph-name="a" unicode="a" horiz-adv-x="425" 
d="M115 0l-72 72v143l73 73h182v109l-39 39h-103l-36 -36v-54h-67v70l72 72h165l75 -75v-413h-50l-4 75l-74 -75h-122zM145 53h83l70 70v114h-150l-39 -38v-110z" />
    <glyph glyph-name="b" unicode="b" 
d="M65 0v690h66v-270l69 68h115l75 -75v-338l-75 -75h-121l-76 76l-2 -76h-51zM207 53h76l40 40v303l-39 40h-72l-81 -81v-227z" />
    <glyph glyph-name="c" unicode="c" horiz-adv-x="408" 
d="M130 0l-75 75v338l75 75h162l73 -73v-86h-67v69l-37 38h-100l-40 -40v-303l40 -40h100l37 38v69h67v-87l-73 -73h-162z" />
    <glyph glyph-name="d" unicode="d" 
d="M130 0l-75 75v338l75 75h115l68 -68v270h67v-690h-51l-3 75l-75 -75h-121zM161 53h77l75 75v227l-80 81h-72l-40 -40v-303z" />
    <glyph glyph-name="e" unicode="e" horiz-adv-x="425" 
d="M130 0l-75 75v338l75 75h170l75 -75v-184h-254v-136l40 -40h113l35 35v57h66v-74l-70 -71h-175zM121 282h188v114l-40 40h-108l-40 -40v-114z" />
    <glyph glyph-name="f" unicode="f" horiz-adv-x="286" 
d="M84 0v434h-63v54h63v130l72 72h126v-53h-95l-37 -36v-113h123v-54h-123v-434h-66z" />
    <glyph glyph-name="g" unicode="g" 
d="M127 -171l-67 67v63h67v-47l31 -30h116l39 39v166l-67 -67h-116l-75 75v318l75 75h115l81 -80l3 80h51v-584l-75 -75h-178zM161 73h78l74 74v208l-80 81h-72l-40 -40v-283z" />
    <glyph glyph-name="h" unicode="h" horiz-adv-x="436" 
d="M65 0v690h66v-270l69 68h101l75 -75v-413h-66v397l-40 39h-58l-81 -81v-355h-66z" />
    <glyph glyph-name="i" unicode="i" horiz-adv-x="206" 
d="M136 0h-66v488h66v-488zM70 571v104h66v-104h-66z" />
    <glyph glyph-name="j" unicode="j" horiz-adv-x="206" 
d="M-40 -171v53h73l37 36v570h66v-587l-71 -72h-105zM70 571v104h66v-104h-66z" />
    <glyph glyph-name="k" unicode="k" horiz-adv-x="422" 
d="M326 0l-105 254l-92 -134v-120h-66v690h66v-481l182 279h74l-123 -182l134 -306h-70z" />
    <glyph glyph-name="l" unicode="l" horiz-adv-x="206" 
d="M136 0h-66v690h66v-690z" />
    <glyph glyph-name="m" unicode="m" horiz-adv-x="654" 
d="M65 0v488h51l3 -80l80 80h85l68 -67l68 67h99l75 -75v-413h-67v397l-39 39h-56l-70 -70v-366h-66v397l-39 39h-44l-82 -81v-355h-66z" />
    <glyph glyph-name="n" unicode="n" horiz-adv-x="436" 
d="M65 0v488h51l3 -80l80 80h102l75 -75v-413h-66v397l-40 39h-57l-82 -81v-355h-66z" />
    <glyph glyph-name="o" unicode="o" horiz-adv-x="433" 
d="M130 0l-75 75v338l75 75h173l75 -75v-338l-75 -75h-173zM161 53h111l40 40v303l-40 40h-111l-40 -40v-303z" />
    <glyph glyph-name="p" unicode="p" 
d="M65 -171v659h51l3 -79l79 79h117l75 -75v-338l-75 -75h-120l-64 64v-235h-66zM208 53h75l40 40v303l-39 40h-73l-80 -80v-227z" />
    <glyph glyph-name="q" unicode="q" 
d="M313 -171v235l-63 -64h-120l-75 75v338l75 75h116l80 -79l3 79h51v-659h-67zM161 53h76l76 76v227l-80 80h-72l-40 -40v-303z" />
    <glyph glyph-name="r" unicode="r" horiz-adv-x="301" 
d="M65 0v488h51l3 -84l84 84h77v-58h-66l-83 -83v-347h-66z" />
    <glyph glyph-name="s" unicode="s" horiz-adv-x="411" 
d="M114 0l-66 66v76h66v-58l31 -31h115l36 36v108l-21 22h-168l-56 56v142l72 71h170l67 -66v-75h-67v58l-31 31h-108l-37 -37v-107l21 -21h168l57 -57v-142l-72 -72h-177z" />
    <glyph glyph-name="t" unicode="t" horiz-adv-x="322" 
d="M160 0l-75 75v359h-66v54h66v147h66v-147h138v-54h-138v-341l39 -39h99v-54h-129z" />
    <glyph glyph-name="u" unicode="u" horiz-adv-x="436" 
d="M135 0l-75 75v413h66v-396l40 -39h57l82 81v354h66v-488h-51l-3 81l-81 -81h-101z" />
    <glyph glyph-name="v" unicode="v" horiz-adv-x="366" 
d="M134 0l-122 488h66l107 -445l107 445h62l-122 -488h-98z" />
    <glyph glyph-name="w" unicode="w" horiz-adv-x="573" 
d="M100 0l-88 488h64l74 -444l96 444h87l94 -443l77 443h57l-88 -488h-92l-92 440l-94 -440h-95z" />
    <glyph glyph-name="x" unicode="x" horiz-adv-x="382" 
d="M296 0l-107 208l-105 -208h-67l132 248l-126 240h70l99 -200l103 200h63l-126 -237l133 -251h-69z" />
    <glyph glyph-name="y" unicode="y" horiz-adv-x="366" 
d="M134 0l-122 488h66l107 -446l107 446h62l-150 -602l-57 -57h-121v53h91l34 34l22 84h-39z" />
    <glyph glyph-name="z" unicode="z" horiz-adv-x="348" 
d="M28 0v42l214 392h-210v54h285v-42l-214 -392h216v-54h-291z" />
    <glyph glyph-name="braceleft" unicode="{" horiz-adv-x="282" 
d="M173 -56l-82 81v266l-32 32h-47v62h45l34 34v245l82 81h76v-58h-42l-46 -46v-236l-50 -50l50 -50v-257l46 -46h42v-58h-76z" />
    <glyph glyph-name="bar" unicode="|" horiz-adv-x="238" 
d="M86 -63v815h67v-815h-67z" />
    <glyph glyph-name="braceright" unicode="}" horiz-adv-x="282" 
d="M191 25l-82 -81h-76v58h42l46 46v257l50 50l-50 50v236l-46 46h-42v58h76l82 -81v-245l34 -34h45v-62h-47l-32 -32v-266z" />
    <glyph glyph-name="asciitilde" unicode="~" horiz-adv-x="385" 
d="M23 554v76l60 60h79l90 -90h22l34 34v56h54v-77l-60 -59h-79l-90 90h-22l-34 -34v-56h-54z" />
    <glyph glyph-name="Adieresis" unicode="&#xc4;" 
d="M14 0l157 690h103l157 -690h-69l-44 201h-194l-43 -201h-67zM221 646l-84 -384h168zM257 750v84h56v-84h-56zM132 750v84h55v-84h-55z" />
    <glyph glyph-name="Aring" unicode="&#xc5;" 
d="M14 0l157 690h103l157 -690h-69l-44 201h-194l-43 -201h-67zM221 646l-84 -384h168zM178 729l-32 33v69l32 33h89l32 -32v-70l-32 -33h-89zM197 758h50l15 14v49l-15 14h-50l-15 -14v-49z" />
    <glyph glyph-name="Ccedilla" unicode="&#xc7;" horiz-adv-x="450" 
d="M141 0l-81 81v528l81 81h183l79 -79v-117h-69v93l-44 44h-115l-45 -45v-482l45 -45h115l44 44v96h69v-120l-79 -79h-79v-40h38l31 -31v-54l-31 -31h-107v36h79l12 12v22l-12 12h-37l-19 19v55h-58z" />
    <glyph glyph-name="Eacute" unicode="&#xc9;" horiz-adv-x="409" 
d="M67 0v690h303v-59h-233v-255h217v-58h-217v-259h235v-59h-305zM177 739v32l78 78h45v-32l-78 -78h-45z" />
    <glyph glyph-name="Ntilde" unicode="&#xd1;" horiz-adv-x="495" 
d="M67 0v690h65l234 -547v547h62v-690h-65l-234 550v-550h-62zM132 746v52l38 39h64l49 -50h19l14 13v37h47v-52l-39 -39h-63l-50 50h-19l-13 -13v-37h-47z" />
    <glyph glyph-name="Odieresis" unicode="&#xd6;" horiz-adv-x="484" 
d="M276 750v84h56v-84h-56zM151 750v84h55v-84h-55zM141 0l-81 81v528l81 81h202l81 -81v-528l-81 -81h-202zM175 59h134l45 45v482l-45 45h-134l-45 -45v-482z" />
    <glyph glyph-name="Udieresis" unicode="&#xdc;" horiz-adv-x="477" 
d="M273 750v84h56v-84h-56zM148 750v84h55v-84h-55zM145 0l-81 81v609h70v-586l45 -45h118l46 45v586h70v-609l-82 -81h-186z" />
    <glyph glyph-name="aacute" unicode="&#xe1;" horiz-adv-x="425" 
d="M115 0l-72 72v143l73 73h182v109l-39 39h-103l-36 -36v-54h-67v70l72 72h165l75 -75v-413h-50l-4 75l-74 -75h-122zM145 53h83l70 70v114h-150l-39 -38v-110zM162 535v32l78 78h45v-32l-78 -78h-45z" />
    <glyph glyph-name="agrave" unicode="&#xe0;" horiz-adv-x="425" 
d="M115 0l-72 72v143l73 73h182v109l-39 39h-103l-36 -36v-54h-67v70l72 72h165l75 -75v-413h-50l-4 75l-74 -75h-122zM145 53h83l70 70v114h-150l-39 -38v-110zM200 535l-78 78v32h45l78 -78v-32h-45z" />
    <glyph glyph-name="acircumflex" unicode="&#xe2;" horiz-adv-x="425" 
d="M115 0l-72 72v143l73 73h182v109l-39 39h-103l-36 -36v-54h-67v70l72 72h165l75 -75v-413h-50l-4 75l-74 -75h-122zM145 53h83l70 70v114h-150l-39 -38v-110zM96 542v28l73 74h68l74 -74v-28h-38l-65 64h-10l-65 -64h-37z" />
    <glyph glyph-name="adieresis" unicode="&#xe4;" horiz-adv-x="425" 
d="M115 0l-72 72v143l73 73h182v109l-39 39h-103l-36 -36v-54h-67v70l72 72h165l75 -75v-413h-50l-4 75l-74 -75h-122zM145 53h83l70 70v114h-150l-39 -38v-110zM238 546v84h56v-84h-56zM113 546v84h55v-84h-55z" />
    <glyph glyph-name="atilde" unicode="&#xe3;" horiz-adv-x="425" 
d="M115 0l-72 72v143l73 73h182v109l-39 39h-103l-36 -36v-54h-67v70l72 72h165l75 -75v-413h-50l-4 75l-74 -75h-122zM145 53h83l70 70v114h-150l-39 -38v-110zM89 542v52l38 39h64l49 -50h19l14 13v37h47v-52l-39 -39h-63l-50 50h-19l-13 -13v-37h-47z" />
    <glyph glyph-name="aring" unicode="&#xe5;" horiz-adv-x="425" 
d="M115 0l-72 72v143l73 73h182v109l-39 39h-103l-36 -36v-54h-67v70l72 72h165l75 -75v-413h-50l-4 75l-74 -75h-122zM145 53h83l70 70v114h-150l-39 -38v-110zM159 525l-32 33v69l32 33h89l32 -32v-70l-32 -33h-89zM178 554h50l15 14v49l-15 14h-50l-15 -14v-49z" />
    <glyph glyph-name="ccedilla" unicode="&#xe7;" horiz-adv-x="408" 
d="M130 0l-75 75v338l75 75h162l73 -73v-86h-67v69l-37 38h-100l-40 -40v-303l40 -40h100l37 38v69h67v-87l-73 -73h-69v-40h38l31 -31v-54l-31 -31h-107v36h79l12 12v22l-12 12h-37l-19 19v55h-47z" />
    <glyph glyph-name="eacute" unicode="&#xe9;" horiz-adv-x="425" 
d="M130 0l-75 75v338l75 75h170l75 -75v-184h-254v-136l40 -40h113l35 35v57h66v-74l-70 -71h-175zM121 282h188v114l-40 40h-108l-40 -40v-114zM173 535v32l78 78h45v-32l-78 -78h-45z" />
    <glyph glyph-name="egrave" unicode="&#xe8;" horiz-adv-x="425" 
d="M130 0l-75 75v338l75 75h170l75 -75v-184h-254v-136l40 -40h113l35 35v57h66v-74l-70 -71h-175zM121 282h188v114l-40 40h-108l-40 -40v-114zM212 535l-78 78v32h45l78 -78v-32h-45z" />
    <glyph glyph-name="ecircumflex" unicode="&#xea;" horiz-adv-x="425" 
d="M108 542v28l73 74h68l74 -74v-28h-38l-65 64h-10l-65 -64h-37zM130 0l-75 75v338l75 75h170l75 -75v-184h-254v-136l40 -40h113l35 35v57h66v-74l-70 -71h-175zM121 282h188v114l-40 40h-108l-40 -40v-114z" />
    <glyph glyph-name="edieresis" unicode="&#xeb;" horiz-adv-x="425" 
d="M250 546v84h56v-84h-56zM125 546v84h55v-84h-55zM130 0l-75 75v338l75 75h170l75 -75v-184h-254v-136l40 -40h113l35 35v57h66v-74l-70 -71h-175zM121 282h188v114l-40 40h-108l-40 -40v-114z" />
    <glyph glyph-name="iacute" unicode="&#xed;" horiz-adv-x="206" 
d="M136 0h-66v488h66v-488zM61 535v32l78 78h45v-32l-78 -78h-45z" />
    <glyph glyph-name="igrave" unicode="&#xec;" horiz-adv-x="206" 
d="M136 0h-66v488h66v-488zM100 535l-78 78v32h45l78 -78v-32h-45z" />
    <glyph glyph-name="icircumflex" unicode="&#xee;" horiz-adv-x="206" 
d="M-4 542v28l73 74h68l74 -74v-28h-38l-65 64h-10l-65 -64h-37zM136 0h-66v488h66v-488z" />
    <glyph glyph-name="idieresis" unicode="&#xef;" horiz-adv-x="206" 
d="M138 546v84h56v-84h-56zM13 546v84h55v-84h-55zM136 0h-66v488h66v-488z" />
    <glyph glyph-name="ntilde" unicode="&#xf1;" horiz-adv-x="436" 
d="M65 0v488h51l3 -80l80 80h102l75 -75v-413h-66v397l-40 39h-57l-82 -81v-355h-66zM112 542v52l38 39h64l49 -50h19l14 13v37h47v-52l-39 -39h-63l-50 50h-19l-13 -13v-37h-47z" />
    <glyph glyph-name="oacute" unicode="&#xf3;" horiz-adv-x="433" 
d="M130 0l-75 75v338l75 75h173l75 -75v-338l-75 -75h-173zM161 53h111l40 40v303l-40 40h-111l-40 -40v-303zM174 535v32l78 78h45v-32l-78 -78h-45z" />
    <glyph glyph-name="ograve" unicode="&#xf2;" horiz-adv-x="433" 
d="M130 0l-75 75v338l75 75h173l75 -75v-338l-75 -75h-173zM161 53h111l40 40v303l-40 40h-111l-40 -40v-303zM213 535l-78 78v32h45l78 -78v-32h-45z" />
    <glyph glyph-name="ocircumflex" unicode="&#xf4;" horiz-adv-x="433" 
d="M109 542v28l73 74h68l74 -74v-28h-38l-65 64h-10l-65 -64h-37zM130 0l-75 75v338l75 75h173l75 -75v-338l-75 -75h-173zM161 53h111l40 40v303l-40 40h-111l-40 -40v-303z" />
    <glyph glyph-name="odieresis" unicode="&#xf6;" horiz-adv-x="433" 
d="M251 546v84h56v-84h-56zM126 546v84h55v-84h-55zM130 0l-75 75v338l75 75h173l75 -75v-338l-75 -75h-173zM161 53h111l40 40v303l-40 40h-111l-40 -40v-303z" />
    <glyph glyph-name="otilde" unicode="&#xf5;" horiz-adv-x="433" 
d="M130 0l-75 75v338l75 75h173l75 -75v-338l-75 -75h-173zM161 53h111l40 40v303l-40 40h-111l-40 -40v-303zM101 542v52l38 39h64l49 -50h19l14 13v37h47v-52l-39 -39h-63l-50 50h-19l-13 -13v-37h-47z" />
    <glyph glyph-name="uacute" unicode="&#xfa;" horiz-adv-x="436" 
d="M135 0l-75 75v413h66v-396l40 -39h57l82 81v354h66v-488h-51l-3 81l-81 -81h-101zM173 535v32l78 78h45v-32l-78 -78h-45z" />
    <glyph glyph-name="ugrave" unicode="&#xf9;" horiz-adv-x="436" 
d="M135 0l-75 75v413h66v-396l40 -39h57l82 81v354h66v-488h-51l-3 81l-81 -81h-101zM212 535l-78 78v32h45l78 -78v-32h-45z" />
    <glyph glyph-name="ucircumflex" unicode="&#xfb;" horiz-adv-x="436" 
d="M108 542v28l73 74h68l74 -74v-28h-38l-65 64h-10l-65 -64h-37zM135 0l-75 75v413h66v-396l40 -39h57l82 81v354h66v-488h-51l-3 81l-81 -81h-101z" />
    <glyph glyph-name="udieresis" unicode="&#xfc;" horiz-adv-x="436" 
d="M250 546v84h56v-84h-56zM125 546v84h55v-84h-55zM135 0l-75 75v413h66v-396l40 -39h57l82 81v354h66v-488h-51l-3 81l-81 -81h-101z" />
    <glyph glyph-name="dagger" unicode="&#x2020;" horiz-adv-x="250" 
d="M96 270v275h-70v50h70v95h58v-95h70v-50h-70v-275h-58z" />
    <glyph glyph-name="degree" unicode="&#xb0;" horiz-adv-x="249" 
d="M75 472l-46 46v125l46 47h99l46 -47v-125l-46 -46h-99zM94 510h61l19 19v103l-19 20h-61l-19 -20v-103z" />
    <glyph glyph-name="cent" unicode="&#xa2;" horiz-adv-x="438" 
d="M133 69l-81 81v391l81 82h61v89h64v-89h61l79 -79v-113h-70v89l-44 45h-115l-47 -47v-345l47 -47h115l44 45v92h70v-115l-79 -79h-61v-92h-64v92h-61z" />
    <glyph glyph-name="sterling" unicode="&#xa3;" horiz-adv-x="448" 
d="M39 0v56l47 47v204h-51v61h51v241l82 81h168l79 -79v-121h-69v97l-44 44h-100l-46 -45v-218h158v-61h-158v-209l-40 -39h299v-59h-376z" />
    <glyph glyph-name="section" unicode="&#xa7;" horiz-adv-x="448" 
d="M124 -99l-76 77v124h70v-101l41 -42h128l43 43v199h-253l-26 26v31h349v-278l-78 -79h-198zM51 338v273l79 79h190l78 -77v-123h-70v100l-42 42h-122l-43 -43v-193h251l25 -26v-32h-346z" />
    <glyph glyph-name="bullet" unicode="&#x2022;" horiz-adv-x="211" 
d="M70 266l-40 40v77l40 40h71l40 -40v-77l-40 -40h-71z" />
    <glyph glyph-name="paragraph" unicode="&#xb6;" horiz-adv-x="585" 
d="M153 211h140v421h-140l-44 -44v-333zM448 632h-85v-732h-70v254h-175l-79 79v378l79 79h400v-790h-70v732z" />
    <glyph glyph-name="germandbls" unicode="&#xdf;" horiz-adv-x="462" 
d="M65 0v615l75 75h195l75 -75v-201l-49 -49l49 -49v-241l-75 -75h-150v53h119l40 40v211l-36 36h-123v52h124l35 34v172l-40 39h-133l-40 -40v-597h-66z" />
    <glyph glyph-name="registered" unicode="&#xae;" horiz-adv-x="378" 
d="M119 374v238h107l35 -34v-79l-29 -29l33 -96h-38l-30 89h-40v-89h-38zM91 296l-62 62v270l62 62h195l63 -62v-270l-63 -62h-195zM109 329h160l39 40v249l-39 38h-160l-39 -38v-249zM157 495h48l18 18v51l-17 16h-49v-85z" />
    <glyph glyph-name="copyright" unicode="&#xa9;" horiz-adv-x="633" 
d="M249 113l-58 59v346l59 59h131l60 -59v-104h-69v85l-21 20h-70l-22 -21v-306l22 -22h70l21 21v84h69v-103l-59 -59h-133zM141 0l-81 81v528l81 81h351l81 -81v-528l-81 -81h-351zM174 53h285l49 50v484l-49 50h-285l-49 -50v-484z" />
    <glyph glyph-name="trademark" unicode="&#x2122;" horiz-adv-x="479" 
d="M73 402v253h-64v35h170v-35h-62v-253h-44zM203 402v288h62l56 -234l54 234h63v-288h-40v247l-59 -247h-40l-58 246v-246h-38z" />
    <glyph glyph-name="acute" unicode="&#xb4;" horiz-adv-x="245" 
d="M61 535v32l78 78h45v-32l-78 -78h-45z" />
    <glyph glyph-name="dieresis" unicode="&#xa8;" horiz-adv-x="302" 
d="M186 546v84h56v-84h-56zM61 546v84h55v-84h-55z" />
    <glyph glyph-name="AE" unicode="&#xc6;" horiz-adv-x="621" 
d="M14 0l157 690h412v-59h-296l58 -255h221v-58h-208l59 -259h167v-59h-222l-44 201h-194l-43 -201h-67zM221 646l-84 -384h168z" />
    <glyph glyph-name="Oslash" unicode="&#xd8;" horiz-adv-x="484" 
d="M141 0l-81 81v528l81 81h202l81 -81v-528l-81 -81h-202zM175 59h134l45 45v482l-5 5l-177 -529zM135 99l177 529l-3 3h-134l-45 -45v-482z" />
    <glyph glyph-name="yen" unicode="&#xa5;" horiz-adv-x="423" 
d="M38 224v50h122l-148 416h75l126 -379l129 379h69l-149 -416h123v-50h-139v-60h139v-49h-139v-115h-70v115h-138v49h138v60h-138z" />
    <glyph glyph-name="ordfeminine" unicode="&#xaa;" horiz-adv-x="309" 
d="M91 345l-57 57v88l57 57h127v68l-28 28h-69l-25 -25v-23h-56v39l56 56h122l57 -58v-287h-41l-3 50l-50 -50h-90zM119 391h51l48 47v63h-100l-26 -26v-57z" />
    <glyph glyph-name="ordmasculine" unicode="&#xba;" horiz-adv-x="309" 
d="M92 345l-58 57v230l58 58h126l57 -58v-230l-57 -57h-126zM120 392h70l28 28v195l-28 28h-70l-28 -28v-195z" />
    <glyph glyph-name="ae" unicode="&#xe6;" horiz-adv-x="668" 
d="M115 0l-72 72v137l73 72h182v116l-39 39h-103l-36 -36v-54h-67v70l72 72h157l49 -49l50 49h162l75 -75v-183h-253v-137l39 -40h113l35 35v57h66v-74l-70 -71h-167l-50 50l-49 -50h-167zM145 53h114l39 39v138h-151l-38 -38v-103zM365 281h187v115l-40 40h-108l-39 -40
v-115z" />
    <glyph glyph-name="oslash" unicode="&#xf8;" horiz-adv-x="433" 
d="M130 0l-75 75v338l75 75h173l75 -75v-338l-75 -75h-173zM161 53h111l40 40v303l-5 5l-151 -343zM126 88l151 343l-5 5h-111l-40 -40v-303z" />
    <glyph glyph-name="questiondown" unicode="&#xbf;" horiz-adv-x="417" 
d="M268 507v-139l-60 -60h-82l-20 -21v-186l43 -43h128l42 42v80h69v-103l-77 -77h-196l-79 79v231l60 60h82l21 21v116h69zM268 690v-115h-69v115h69z" />
    <glyph glyph-name="exclamdown" unicode="&#xa1;" horiz-adv-x="216" 
d="M143 507v-507h-70v507h70zM143 690v-114h-70v114h70z" />
    <glyph glyph-name="florin" unicode="&#x192;" horiz-adv-x="353" 
d="M24 0v59h51l45 45v258h-90v58h90v189l81 81h123v-59h-88l-46 -45v-166h127v-58h-127v-281l-82 -81h-84z" />
    <glyph glyph-name="guillemotleft" unicode="&#xab;" horiz-adv-x="329" 
d="M119 146l-100 201l100 203h62l-100 -203l100 -201h-62zM242 146l-101 201l101 203h62l-101 -203l101 -201h-62z" />
    <glyph glyph-name="guillemotright" unicode="&#xbb;" horiz-adv-x="329" 
d="M310 347l-100 -201h-62l100 201l-100 203h62zM188 347l-101 -201h-62l101 201l-101 203h62z" />
    <glyph glyph-name="ellipsis" unicode="&#x2026;" horiz-adv-x="492" 
d="M42 0v105h80v-105h-80zM206 0v105h80v-105h-80zM370 0v105h80v-105h-80z" />
    <glyph glyph-name="Agrave" unicode="&#xc0;" 
d="M14 0l157 690h103l157 -690h-69l-44 201h-194l-43 -201h-67zM221 646l-84 -384h168zM219 739l-78 78v32h45l78 -78v-32h-45z" />
    <glyph glyph-name="Atilde" unicode="&#xc3;" 
d="M14 0l157 690h103l157 -690h-69l-44 201h-194l-43 -201h-67zM221 646l-84 -384h168zM107 746v52l38 39h64l49 -50h19l14 13v37h47v-52l-39 -39h-63l-50 50h-19l-13 -13v-37h-47z" />
    <glyph glyph-name="Otilde" unicode="&#xd5;" horiz-adv-x="484" 
d="M141 0l-81 81v528l81 81h202l81 -81v-528l-81 -81h-202zM175 59h134l45 45v482l-45 45h-134l-45 -45v-482zM127 746v52l38 39h64l49 -50h19l14 13v37h47v-52l-39 -39h-63l-50 50h-19l-13 -13v-37h-47z" />
    <glyph glyph-name="OE" unicode="&#x152;" horiz-adv-x="686" 
d="M141 0l-81 81v528l81 81h508v-59h-234v-255h217v-58h-217v-259h235v-59h-509zM175 59h170v572h-170l-45 -45v-482z" />
    <glyph glyph-name="oe" unicode="&#x153;" horiz-adv-x="682" 
d="M130 0l-75 75v338l75 75h165l50 -49l49 49h163l75 -75v-184h-254v-136l40 -40h112l36 35v57h66v-74l-72 -71h-166l-49 50l-50 -50h-165zM161 53h111l40 40v303l-40 40h-111l-40 -40v-303zM378 282h188v114l-40 40h-108l-40 -40v-114z" />
    <glyph glyph-name="endash" unicode="&#x2013;" horiz-adv-x="319" 
d="M12 314v61h295v-61h-295z" />
    <glyph glyph-name="emdash" unicode="&#x2014;" horiz-adv-x="438" 
d="M12 314v61h414v-61h-414z" />
    <glyph glyph-name="quotedblleft" unicode="&#x201c;" horiz-adv-x="301" 
d="M45 488v167l35 35h44v-39h-25l-9 -9v-47h34v-107h-79zM177 488v167l35 35h44v-39h-25l-8 -9v-47h33v-107h-79z" />
    <glyph glyph-name="quotedblright" unicode="&#x201d;" horiz-adv-x="301" 
d="M256 690v-167l-35 -35h-44v39h25l9 9v47h-34v107h79zM124 690v-167l-35 -35h-44v39h25l8 9v47h-33v107h79z" />
    <glyph glyph-name="quoteleft" unicode="&#x2018;" horiz-adv-x="168" 
d="M44 488v167l35 35h44v-39h-25l-8 -9v-47h33v-107h-79z" />
    <glyph glyph-name="quoteright" unicode="&#x2019;" horiz-adv-x="168" 
d="M124 690v-167l-35 -35h-44v39h25l8 9v47h-33v107h79z" />
    <glyph glyph-name="divide" unicode="&#xf7;" horiz-adv-x="354" 
d="M145 166v82h64v-82h-64zM19 315v58h316v-58h-316zM145 438v82h64v-82h-64z" />
    <glyph glyph-name="ydieresis" unicode="&#xff;" horiz-adv-x="366" 
d="M134 0l-122 488h66l107 -446l107 446h62l-150 -602l-57 -57h-121v53h91l34 34l22 84h-39zM217 546v84h56v-84h-56zM92 546v84h55v-84h-55z" />
    <glyph glyph-name="Ydieresis" unicode="&#x178;" horiz-adv-x="423" 
d="M176 0v229l-164 461h74l127 -380l130 380h68l-165 -461v-229h-70zM246 750v84h56v-84h-56zM121 750v84h55v-84h-55z" />
    <glyph glyph-name="fraction" unicode="&#x2044;" horiz-adv-x="375" 
d="M0 0l320 690h55l-320 -690h-55z" />
    <glyph glyph-name="Euro" unicode="&#x20ac;" horiz-adv-x="466" 
d="M27 381v50h45v178l81 81h187l79 -79v-117h-69v93l-44 44h-119l-45 -45v-155h191v-50h-191v-65h191v-49h-191v-163l45 -45h119l44 44v96h69v-120l-79 -79h-187l-81 81v186h-45v49h45v65h-45z" />
    <glyph glyph-name="guilsinglleft" unicode="&#x2039;" horiz-adv-x="206" 
d="M119 146l-101 201l101 203h62l-101 -203l101 -201h-62z" />
    <glyph glyph-name="guilsinglright" unicode="&#x203a;" horiz-adv-x="206" 
d="M188 347l-101 -201h-62l101 201l-101 203h62z" />
    <glyph glyph-name="fi" unicode="&#xfb01;" horiz-adv-x="492" 
d="M84 0v434h-63v54h63v130l72 72h126v-53h-95l-37 -36v-113h123v-54h-123v-434h-66zM422 0h-66v488h66v-488zM356 571v104h66v-104h-66z" />
    <glyph glyph-name="fl" unicode="&#xfb02;" horiz-adv-x="492" 
d="M84 0v434h-63v54h63v130l72 72h126v-53h-95l-37 -36v-113h123v-54h-123v-434h-66zM422 0h-66v690h66v-690z" />
    <glyph glyph-name="daggerdbl" unicode="&#x2021;" horiz-adv-x="250" 
d="M96 270v92h-70v50h70v136h-70v50h70v92h58v-92h70v-50h-70v-136h70v-50h-70v-92h-58z" />
    <glyph glyph-name="periodcentered" unicode="&#xb7;" horiz-adv-x="188" 
d="M54 307v106h80v-106h-80z" />
    <glyph glyph-name="quotesinglbase" unicode="&#x201a;" horiz-adv-x="168" 
d="M44 -95v39h25l9 9v47h-34v106h79v-166l-35 -35h-44z" />
    <glyph glyph-name="quotedblbase" unicode="&#x201e;" horiz-adv-x="301" 
d="M45 -95v39h25l9 9v47h-34v106h79v-166l-35 -35h-44zM177 -95v39h25l9 9v47h-34v106h79v-166l-35 -35h-44z" />
    <glyph glyph-name="perthousand" unicode="&#x2030;" horiz-adv-x="898" 
d="M92 362l-58 58v212l58 58h121l57 -58v-212l-57 -58h-121zM121 409h62l28 28v178l-28 28h-62l-28 -28v-178zM394 0l-58 58v212l58 58h121l58 -58v-212l-58 -58h-121zM424 47h61l28 28v178l-28 28h-61l-28 -28v-178zM685 0l-57 58v212l57 58h121l58 -58v-212l-58 -58h-121z
M715 47h62l28 28v178l-28 28h-62l-28 -28v-178zM115 0l320 690h55l-320 -690h-55z" />
    <glyph glyph-name="Acircumflex" unicode="&#xc2;" 
d="M14 0l157 690h103l157 -690h-69l-44 201h-194l-43 -201h-67zM221 646l-84 -384h168zM115 746v28l73 74h68l74 -74v-28h-38l-65 64h-10l-65 -64h-37z" />
    <glyph glyph-name="Ecircumflex" unicode="&#xca;" horiz-adv-x="409" 
d="M112 746v28l73 74h68l74 -74v-28h-38l-65 64h-10l-65 -64h-37zM67 0v690h303v-59h-233v-255h217v-58h-217v-259h235v-59h-305z" />
    <glyph glyph-name="Aacute" unicode="&#xc1;" 
d="M14 0l157 690h103l157 -690h-69l-44 201h-194l-43 -201h-67zM221 646l-84 -384h168zM180 739v32l78 78h45v-32l-78 -78h-45z" />
    <glyph glyph-name="Edieresis" unicode="&#xcb;" horiz-adv-x="409" 
d="M254 750v84h56v-84h-56zM129 750v84h55v-84h-55zM67 0v690h303v-59h-233v-255h217v-58h-217v-259h235v-59h-305z" />
    <glyph glyph-name="Egrave" unicode="&#xc8;" horiz-adv-x="409" 
d="M67 0v690h303v-59h-233v-255h217v-58h-217v-259h235v-59h-305zM216 739l-78 78v32h45l78 -78v-32h-45z" />
    <glyph glyph-name="Iacute" unicode="&#xcd;" horiz-adv-x="332" 
d="M33 0v53h98v584h-98v53h266v-53h-98v-584h98v-53h-266zM124 739v32l78 78h45v-32l-78 -78h-45z" />
    <glyph glyph-name="Icircumflex" unicode="&#xce;" horiz-adv-x="332" 
d="M33 0v53h98v584h-98v53h266v-53h-98v-584h98v-53h-266zM59 746v28l73 74h68l74 -74v-28h-38l-65 64h-10l-65 -64h-37z" />
    <glyph glyph-name="Idieresis" unicode="&#xcf;" horiz-adv-x="332" 
d="M33 0v53h98v584h-98v53h266v-53h-98v-584h98v-53h-266zM200 750v84h56v-84h-56zM75 750v84h55v-84h-55z" />
    <glyph glyph-name="Igrave" unicode="&#xcc;" horiz-adv-x="332" 
d="M33 0v53h98v584h-98v53h266v-53h-98v-584h98v-53h-266zM162 739l-78 78v32h45l78 -78v-32h-45z" />
    <glyph glyph-name="Oacute" unicode="&#xd3;" horiz-adv-x="484" 
d="M200 739v32l78 78h45v-32l-78 -78h-45zM141 0l-81 81v528l81 81h202l81 -81v-528l-81 -81h-202zM175 59h134l45 45v482l-45 45h-134l-45 -45v-482z" />
    <glyph glyph-name="Ocircumflex" unicode="&#xd4;" horiz-adv-x="484" 
d="M134 746v28l73 74h68l74 -74v-28h-38l-65 64h-10l-65 -64h-37zM141 0l-81 81v528l81 81h202l81 -81v-528l-81 -81h-202zM175 59h134l45 45v482l-45 45h-134l-45 -45v-482z" />
    <glyph glyph-name="Ograve" unicode="&#xd2;" horiz-adv-x="484" 
d="M141 0l-81 81v528l81 81h202l81 -81v-528l-81 -81h-202zM175 59h134l45 45v482l-45 45h-134l-45 -45v-482zM238 739l-78 78v32h45l78 -78v-32h-45z" />
    <glyph glyph-name="Uacute" unicode="&#xda;" horiz-adv-x="477" 
d="M196 739v32l78 78h45v-32l-78 -78h-45zM145 0l-81 81v609h70v-586l45 -45h118l46 45v586h70v-609l-82 -81h-186z" />
    <glyph glyph-name="Ucircumflex" unicode="&#xdb;" horiz-adv-x="477" 
d="M131 746v28l73 74h68l74 -74v-28h-38l-65 64h-10l-65 -64h-37zM145 0l-81 81v609h70v-586l45 -45h118l46 45v586h70v-609l-82 -81h-186z" />
    <glyph glyph-name="Ugrave" unicode="&#xd9;" horiz-adv-x="477" 
d="M145 0l-81 81v609h70v-586l45 -45h118l46 45v586h70v-609l-82 -81h-186zM235 739l-78 78v32h45l78 -78v-32h-45z" />
    <glyph glyph-name="dotlessi" unicode="&#x131;" horiz-adv-x="206" 
d="M136 0h-66v488h66v-488z" />
    <glyph glyph-name="circumflex" unicode="&#x2c6;" horiz-adv-x="336" 
d="M61 542v28l73 74h68l74 -74v-28h-38l-65 64h-10l-65 -64h-37z" />
    <glyph glyph-name="tilde" unicode="&#x2dc;" horiz-adv-x="352" 
d="M61 542v52l38 39h64l49 -50h19l14 13v37h47v-52l-39 -39h-63l-50 50h-19l-13 -13v-37h-47z" />
    <glyph glyph-name="macron" unicode="&#xaf;" horiz-adv-x="311" 
d="M61 565v49h190v-49h-190z" />
    <glyph glyph-name="breve" unicode="&#x2d8;" horiz-adv-x="325" 
d="M99 546l-38 39v47h51v-31l14 -15h73l15 15v31h51v-47l-39 -39h-127z" />
    <glyph glyph-name="dotaccent" unicode="&#x2d9;" horiz-adv-x="208" 
d="M80 545l-19 19v52l19 19h48l19 -19v-52l-19 -19h-48z" />
    <glyph glyph-name="ring" unicode="&#x2da;" horiz-adv-x="274" 
d="M93 525l-32 33v69l32 33h89l32 -32v-70l-32 -33h-89zM112 554h50l15 14v49l-15 14h-50l-15 -14v-49z" />
    <glyph glyph-name="cedilla" unicode="&#xb8;" horiz-adv-x="260" 
d="M61 -156v36h79l12 12v22l-12 12h-37l-19 19v55h46v-40h38l31 -31v-54l-31 -31h-107z" />
    <glyph glyph-name="hungarumlaut" unicode="&#x2dd;" horiz-adv-x="345" 
d="M61 535v33l78 78h34v-33l-79 -78h-33zM172 535v33l78 78h34v-33l-78 -78h-34z" />
    <glyph glyph-name="ogonek" unicode="&#x2db;" horiz-adv-x="235" 
d="M91 -156l-30 31v67l57 58h56l-67 -67v-38l15 -15h52v-36h-83z" />
    <glyph glyph-name="caron" unicode="&#x2c7;" horiz-adv-x="336" 
d="M134 542l-73 73v29h37l65 -65h10l65 65h38v-29l-74 -73h-68z" />
    <glyph glyph-name="commaaccent" horiz-adv-x="175" 
d="M61 -156v121h53v-101l-21 -20h-32z" />
    <glyph glyph-name="uni0237" unicode="&#x237;" horiz-adv-x="206" 
d="M-40 -171v53h73l37 36v570h66v-587l-71 -72h-105z" />
    <glyph glyph-name="Dcroat" unicode="&#x110;" horiz-adv-x="494" 
d="M22 311v64h57v315h274l81 -81v-528l-81 -81h-274v311h-57zM149 59h170l45 45v482l-45 45h-170v-256h100v-64h-100v-252z" />
    <glyph glyph-name="dcroat" unicode="&#x111;" 
d="M227 557v55h86v78h67v-78h48v-55h-48v-557h-51l-3 76l-75 -76h-121l-75 75v338l75 75h115l68 -68v137h-86zM161 53h77l75 75v227l-80 81h-72l-40 -40v-303z" />
    <glyph glyph-name="Abreve" unicode="&#x102;" 
d="M14 0l157 690h103l157 -690h-69l-44 201h-194l-43 -201h-67zM221 646l-84 -384h168zM159 750l-38 39v47h51v-31l14 -15h73l15 15v31h51v-47l-39 -39h-127z" />
    <glyph glyph-name="Amacron" unicode="&#x100;" 
d="M14 0l157 690h103l157 -690h-69l-44 201h-194l-43 -201h-67zM221 646l-84 -384h168zM128 769v49h190v-49h-190z" />
    <glyph glyph-name="Aogonek" unicode="&#x104;" 
d="M14 0l157 690h103l157 -690h-18l-67 -67v-38l15 -15h52v-36h-83l-30 30v68l61 61l-43 198h-194l-43 -201h-67zM221 646l-84 -384h168z" />
    <glyph glyph-name="Cacute" unicode="&#x106;" horiz-adv-x="450" 
d="M189 739v32l78 78h45v-32l-78 -78h-45zM141 0l-81 81v528l81 81h183l79 -79v-117h-69v93l-44 44h-115l-45 -45v-482l45 -45h115l44 44v96h69v-120l-79 -79h-183z" />
    <glyph glyph-name="Ccaron" unicode="&#x10c;" horiz-adv-x="450" 
d="M197 746l-73 73v29h37l65 -65h10l65 65h38v-29l-74 -73h-68zM141 0l-81 81v528l81 81h183l79 -79v-117h-69v93l-44 44h-115l-45 -45v-482l45 -45h115l44 44v96h69v-120l-79 -79h-183z" />
    <glyph glyph-name="Ccircumflex" unicode="&#x108;" horiz-adv-x="450" 
d="M124 746v28l73 74h68l74 -74v-28h-38l-65 64h-10l-65 -64h-37zM141 0l-81 81v528l81 81h183l79 -79v-117h-69v93l-44 44h-115l-45 -45v-482l45 -45h115l44 44v96h69v-120l-79 -79h-183z" />
    <glyph glyph-name="Dcaron" unicode="&#x10e;" horiz-adv-x="482" 
d="M198 746l-73 73v29h37l65 -65h10l65 65h38v-29l-74 -73h-68zM67 0v690h274l81 -81v-528l-81 -81h-274zM137 59h170l45 45v482l-45 45h-170v-572z" />
    <glyph glyph-name="Ecaron" unicode="&#x11a;" horiz-adv-x="409" 
d="M185 746l-73 73v29h37l65 -65h10l65 65h38v-29l-74 -73h-68zM67 0v690h303v-59h-233v-255h217v-58h-217v-259h235v-59h-305z" />
    <glyph glyph-name="Edotaccent" unicode="&#x116;" horiz-adv-x="409" 
d="M67 0v690h303v-59h-233v-255h217v-58h-217v-259h235v-59h-305zM195 749l-19 19v52l19 19h48l19 -19v-52l-19 -19h-48z" />
    <glyph glyph-name="Emacron" unicode="&#x112;" horiz-adv-x="409" 
d="M67 0v690h303v-59h-233v-255h217v-58h-217v-259h235v-59h-305zM125 769v49h190v-49h-190z" />
    <glyph glyph-name="Eogonek" unicode="&#x118;" horiz-adv-x="409" 
d="M67 0v690h303v-59h-233v-255h217v-58h-217v-259h235v-59l-67 -67v-38l15 -15h52v-36h-83l-30 31v67l57 58h-249z" />
    <glyph glyph-name="Gbreve" unicode="&#x11e;" horiz-adv-x="471" 
d="M141 0l-81 81v528l81 81h194l77 -77v-103h-70v80l-41 41h-126l-45 -45v-482l45 -45h126l45 45v188h-118v59h188v-270l-81 -81h-194zM174 750l-38 39v47h51v-31l14 -15h73l15 15v31h51v-47l-39 -39h-127z" />
    <glyph glyph-name="Gcircumflex" unicode="&#x11c;" horiz-adv-x="471" 
d="M131 746v28l73 74h68l74 -74v-28h-38l-65 64h-10l-65 -64h-37zM141 0l-81 81v528l81 81h194l77 -77v-103h-70v80l-41 41h-126l-45 -45v-482l45 -45h126l45 45v188h-118v59h188v-270l-81 -81h-194z" />
    <glyph glyph-name="Gcommaaccent" unicode="&#x122;" horiz-adv-x="471" 
d="M212 -156v121h53v-101l-21 -20h-32zM141 0l-81 81v528l81 81h194l77 -77v-103h-70v80l-41 41h-126l-45 -45v-482l45 -45h126l45 45v188h-118v59h188v-270l-81 -81h-194z" />
    <glyph glyph-name="Hcircumflex" unicode="&#x124;" horiz-adv-x="487" 
d="M136 746v28l73 74h68l74 -74v-28h-38l-65 64h-10l-65 -64h-37zM67 0v690h70v-315h213v315h70v-690h-70v311h-213v-311h-70z" />
    <glyph glyph-name="Idotaccent" unicode="&#x130;" horiz-adv-x="332" 
d="M33 0v53h98v584h-98v53h266v-53h-98v-584h98v-53h-266zM142 749l-19 19v52l19 19h48l19 -19v-52l-19 -19h-48z" />
    <glyph glyph-name="Imacron" unicode="&#x12a;" horiz-adv-x="332" 
d="M33 0v53h98v584h-98v53h266v-53h-98v-584h98v-53h-266zM71 769v49h190v-49h-190z" />
    <glyph glyph-name="Iogonek" unicode="&#x12e;" horiz-adv-x="332" 
d="M33 0v53h98v584h-98v53h266v-53h-98v-584h98v-53h-112l-67 -67v-38l15 -15h52v-36h-83l-30 31v67l57 58h-98z" />
    <glyph glyph-name="Jcircumflex" unicode="&#x134;" horiz-adv-x="312" 
d="M105 746v28l73 74h68l74 -74v-28h-38l-65 64h-10l-65 -64h-37zM14 0v59h118l46 45v586h70v-609l-82 -81h-152z" />
    <glyph glyph-name="Kcommaaccent" unicode="&#x136;" horiz-adv-x="469" 
d="M231 -156v121h53v-101l-21 -20h-32zM374 0l-138 341l-100 -178v-163h-70v690h70v-422l228 422h73l-156 -287l167 -403h-74z" />
    <glyph glyph-name="Lacute" unicode="&#x139;" horiz-adv-x="371" 
d="M80 739v32l78 78h45v-32l-78 -78h-45zM67 0v690h70v-631h211v-59h-281z" />
    <glyph glyph-name="Lcaron" unicode="&#x13d;" horiz-adv-x="371" 
d="M209 598v121h53v-101l-21 -20h-32zM67 0v690h70v-631h211v-59h-281z" />
    <glyph glyph-name="Lcommaaccent" unicode="&#x13b;" horiz-adv-x="371" 
d="M181 -156v121h53v-101l-21 -20h-32zM67 0v690h70v-631h211v-59h-281z" />
    <glyph glyph-name="Nacute" unicode="&#x143;" horiz-adv-x="495" 
d="M205 739v32l78 78h45v-32l-78 -78h-45zM67 0v690h65l234 -547v547h62v-690h-65l-234 550v-550h-62z" />
    <glyph glyph-name="Ncaron" unicode="&#x147;" horiz-adv-x="495" 
d="M213 746l-73 73v29h37l65 -65h10l65 65h38v-29l-74 -73h-68zM67 0v690h65l234 -547v547h62v-690h-65l-234 550v-550h-62z" />
    <glyph glyph-name="Ncommaaccent" unicode="&#x145;" horiz-adv-x="495" 
d="M221 -156v121h53v-101l-21 -20h-32zM67 0v690h65l234 -547v547h62v-690h-65l-234 550v-550h-62z" />
    <glyph glyph-name="Ohungarumlaut" unicode="&#x150;" horiz-adv-x="484" 
d="M154 739v33l78 78h34v-33l-79 -78h-33zM265 739v33l78 78h34v-33l-78 -78h-34zM141 0l-81 81v528l81 81h202l81 -81v-528l-81 -81h-202zM175 59h134l45 45v482l-45 45h-134l-45 -45v-482z" />
    <glyph glyph-name="Omacron" unicode="&#x14c;" horiz-adv-x="484" 
d="M147 769v49h190v-49h-190zM141 0l-81 81v528l81 81h202l81 -81v-528l-81 -81h-202zM175 59h134l45 45v482l-45 45h-134l-45 -45v-482z" />
    <glyph glyph-name="Racute" unicode="&#x154;" horiz-adv-x="476" 
d="M193 739v32l78 78h45v-32l-78 -78h-45zM67 0v690h277l79 -79v-225l-73 -73l78 -313h-71l-74 304h-146v-304h-70zM137 363h171l45 45v180l-44 44h-172v-269z" />
    <glyph glyph-name="Rcaron" unicode="&#x158;" horiz-adv-x="476" 
d="M201 746l-73 73v29h37l65 -65h10l65 65h38v-29l-74 -73h-68zM67 0v690h277l79 -79v-225l-73 -73l78 -313h-71l-74 304h-146v-304h-70zM137 363h171l45 45v180l-44 44h-172v-269z" />
    <glyph glyph-name="Rcommaaccent" unicode="&#x156;" horiz-adv-x="476" 
d="M221 -156v121h53v-101l-21 -20h-32zM67 0v690h277l79 -79v-225l-73 -73l78 -313h-71l-74 304h-146v-304h-70zM137 363h171l45 45v180l-44 44h-172v-269z" />
    <glyph glyph-name="Sacute" unicode="&#x15a;" horiz-adv-x="441" 
d="M178 739v32l78 78h45v-32l-78 -78h-45zM122 0l-77 77v103h69v-80l42 -42h127l43 43v186l-33 33h-177l-68 69v222l79 79h189l78 -77v-102h-70v79l-42 42h-121l-44 -43v-177l33 -33h177l69 -69v-231l-79 -79h-195z" />
    <glyph glyph-name="Scedilla" unicode="&#x15e;" horiz-adv-x="441" 
d="M122 0l-77 77v103h69v-80l42 -42h127l43 43v186l-33 33h-177l-68 69v222l79 79h189l78 -77v-102h-70v79l-42 42h-121l-44 -43v-177l33 -33h177l69 -69v-231l-79 -79h-83v-40h38l31 -31v-54l-31 -31h-107v36h79l12 12v22l-12 12h-37l-19 19v55h-66z" />
    <glyph glyph-name="Scircumflex" unicode="&#x15c;" horiz-adv-x="441" 
d="M113 746v28l73 74h68l74 -74v-28h-38l-65 64h-10l-65 -64h-37zM122 0l-77 77v103h69v-80l42 -42h127l43 43v186l-33 33h-177l-68 69v222l79 79h189l78 -77v-102h-70v79l-42 42h-121l-44 -43v-177l33 -33h177l69 -69v-231l-79 -79h-195z" />
    <glyph glyph-name="Scommaaccent" unicode="&#x218;" horiz-adv-x="441" 
d="M194 -156v121h53v-101l-21 -20h-32zM122 0l-77 77v103h69v-80l42 -42h127l43 43v186l-33 33h-177l-68 69v222l79 79h189l78 -77v-102h-70v79l-42 42h-121l-44 -43v-177l33 -33h177l69 -69v-231l-79 -79h-195z" />
    <glyph glyph-name="Tcaron" unicode="&#x164;" horiz-adv-x="403" 
d="M166 746l-73 73v29h37l65 -65h10l65 65h38v-29l-74 -73h-68zM166 0v631h-150v59h371v-59h-151v-631h-70z" />
    <glyph glyph-name="Tcommaaccent" unicode="&#x162;" horiz-adv-x="403" 
d="M175 -156v121h53v-101l-21 -20h-32zM166 0v631h-150v59h371v-59h-151v-631h-70z" />
    <glyph glyph-name="Ubreve" unicode="&#x16c;" horiz-adv-x="477" 
d="M145 0l-81 81v609h70v-586l45 -45h118l46 45v586h70v-609l-82 -81h-186zM174 750l-38 39v47h51v-31l14 -15h73l15 15v31h51v-47l-39 -39h-127z" />
    <glyph glyph-name="Uhungarumlaut" unicode="&#x170;" horiz-adv-x="477" 
d="M145 0l-81 81v609h70v-586l45 -45h118l46 45v586h70v-609l-82 -81h-186zM150 739v33l78 78h34v-33l-79 -78h-33zM261 739v33l78 78h34v-33l-78 -78h-34z" />
    <glyph glyph-name="Umacron" unicode="&#x16a;" horiz-adv-x="477" 
d="M145 0l-81 81v609h70v-586l45 -45h118l46 45v586h70v-609l-82 -81h-186zM143 769v49h190v-49h-190z" />
    <glyph glyph-name="Uogonek" unicode="&#x172;" horiz-adv-x="477" 
d="M145 0l-81 81v609h70v-586l45 -45h118l46 45v586h70v-609l-82 -81h-51l-67 -67v-38l15 -15h52v-36h-83l-30 31v67l57 58h-79z" />
    <glyph glyph-name="Uring" unicode="&#x16e;" horiz-adv-x="477" 
d="M194 729l-32 33v69l32 33h89l32 -32v-70l-32 -33h-89zM213 758h50l15 14v49l-15 14h-50l-15 -14v-49zM145 0l-81 81v609h70v-586l45 -45h118l46 45v586h70v-609l-82 -81h-186z" />
    <glyph glyph-name="Zacute" unicode="&#x179;" horiz-adv-x="389" 
d="M153 739v32l78 78h45v-32l-78 -78h-45zM31 0v50l248 581h-243v59h318v-50l-248 -581h252v-59h-327z" />
    <glyph glyph-name="Zdotaccent" unicode="&#x17b;" horiz-adv-x="389" 
d="M31 0v50l248 581h-243v59h318v-50l-248 -581h252v-59h-327zM170 749l-19 19v52l19 19h48l19 -19v-52l-19 -19h-48z" />
    <glyph glyph-name="abreve" unicode="&#x103;" horiz-adv-x="425" 
d="M115 0l-72 72v143l73 73h182v109l-39 39h-103l-36 -36v-54h-67v70l72 72h165l75 -75v-413h-50l-4 75l-74 -75h-122zM145 53h83l70 70v114h-150l-39 -38v-110zM140 546l-38 39v47h51v-31l14 -15h73l15 15v31h51v-47l-39 -39h-127z" />
    <glyph glyph-name="amacron" unicode="&#x101;" horiz-adv-x="425" 
d="M115 0l-72 72v143l73 73h182v109l-39 39h-103l-36 -36v-54h-67v70l72 72h165l75 -75v-413h-50l-4 75l-74 -75h-122zM145 53h83l70 70v114h-150l-39 -38v-110zM109 565v49h190v-49h-190z" />
    <glyph glyph-name="aogonek" unicode="&#x105;" horiz-adv-x="425" 
d="M115 0l-72 72v143l73 73h182v109l-39 39h-103l-36 -36v-54h-67v70l72 72h165l75 -75v-413l-67 -67v-38l14 -15h53v-36h-84l-30 31v67l63 63l-3 70l-74 -75h-122zM145 53h83l70 70v114h-150l-39 -38v-110z" />
    <glyph glyph-name="cacute" unicode="&#x107;" horiz-adv-x="408" 
d="M168 535v32l78 78h45v-32l-78 -78h-45zM130 0l-75 75v338l75 75h162l73 -73v-86h-67v69l-37 38h-100l-40 -40v-303l40 -40h100l37 38v69h67v-87l-73 -73h-162z" />
    <glyph glyph-name="ccaron" unicode="&#x10d;" horiz-adv-x="408" 
d="M175 542l-73 73v29h37l65 -65h10l65 65h38v-29l-74 -73h-68zM130 0l-75 75v338l75 75h162l73 -73v-86h-67v69l-37 38h-100l-40 -40v-303l40 -40h100l37 38v69h67v-87l-73 -73h-162z" />
    <glyph glyph-name="ccircumflex" unicode="&#x109;" horiz-adv-x="408" 
d="M102 542v28l73 74h68l74 -74v-28h-38l-65 64h-10l-65 -64h-37zM130 0l-75 75v338l75 75h162l73 -73v-86h-67v69l-37 38h-100l-40 -40v-303l40 -40h100l37 38v69h67v-87l-73 -73h-162z" />
    <glyph glyph-name="dcaron" unicode="&#x10f;" 
d="M428 568v121h53v-101l-21 -20h-32zM130 0l-75 75v338l75 75h115l68 -68v270h67v-690h-51l-3 75l-75 -75h-121zM161 53h77l75 75v227l-80 81h-72l-40 -40v-303z" />
    <glyph glyph-name="ecaron" unicode="&#x11b;" horiz-adv-x="425" 
d="M181 542l-73 73v29h37l65 -65h10l65 65h38v-29l-74 -73h-68zM130 0l-75 75v338l75 75h170l75 -75v-184h-254v-136l40 -40h113l35 35v57h66v-74l-70 -71h-175zM121 282h188v114l-40 40h-108l-40 -40v-114z" />
    <glyph glyph-name="edotaccent" unicode="&#x117;" horiz-adv-x="425" 
d="M130 0l-75 75v338l75 75h170l75 -75v-184h-254v-136l40 -40h113l35 35v57h66v-74l-70 -71h-175zM121 282h188v114l-40 40h-108l-40 -40v-114zM191 545l-19 19v52l19 19h48l19 -19v-52l-19 -19h-48z" />
    <glyph glyph-name="emacron" unicode="&#x113;" horiz-adv-x="425" 
d="M130 0l-75 75v338l75 75h170l75 -75v-184h-254v-136l40 -40h113l35 35v57h66v-74l-70 -71h-175zM121 282h188v114l-40 40h-108l-40 -40v-114zM120 565v49h190v-49h-190z" />
    <glyph glyph-name="eogonek" unicode="&#x119;" horiz-adv-x="425" 
d="M130 0l-75 75v338l75 75h170l75 -75v-184h-254v-136l40 -40h113l35 35v57h66v-74l-70 -71l-67 -67v-38l15 -15h52v-36h-83l-30 31v67l57 58h-119zM121 282h188v114l-40 40h-108l-40 -40v-114z" />
    <glyph glyph-name="gbreve" unicode="&#x11f;" 
d="M127 -171l-67 67v63h67v-47l31 -30h116l39 39v166l-67 -67h-116l-75 75v318l75 75h115l81 -80l3 80h51v-584l-75 -75h-178zM161 73h78l74 74v208l-80 81h-72l-40 -40v-283zM146 546l-38 39v47h51v-31l14 -15h73l15 15v31h51v-47l-39 -39h-127z" />
    <glyph glyph-name="gcircumflex" unicode="&#x11d;" 
d="M103 542v28l73 74h68l74 -74v-28h-38l-65 64h-10l-65 -64h-37zM127 -171l-67 67v63h67v-47l31 -30h116l39 39v166l-67 -67h-116l-75 75v318l75 75h115l81 -80l3 80h51v-584l-75 -75h-178zM161 73h78l74 74v208l-80 81h-72l-40 -40v-283z" />
    <glyph glyph-name="gcommaaccent" unicode="&#x123;" 
d="M242 653v-121h-53v101l21 20h32zM127 -171l-67 67v63h67v-47l31 -30h116l39 39v166l-67 -67h-116l-75 75v318l75 75h115l81 -80l3 80h51v-584l-75 -75h-178zM161 73h78l74 74v208l-80 81h-72l-40 -40v-283z" />
    <glyph glyph-name="hcircumflex" unicode="&#x125;" horiz-adv-x="436" 
d="M-8 717v28l73 74h68l74 -74v-28h-38l-65 64h-10l-65 -64h-37zM65 0v690h66v-270l69 68h101l75 -75v-413h-66v397l-40 39h-58l-81 -81v-355h-66z" />
    <glyph glyph-name="imacron" unicode="&#x12b;" horiz-adv-x="206" 
d="M136 0h-66v488h66v-488zM9 565v49h190v-49h-190z" />
    <glyph glyph-name="iogonek" unicode="&#x12f;" horiz-adv-x="206" 
d="M136 0h-10l-67 -67v-38l15 -15h52v-36h-83l-31 31v67l58 58v488h66v-488zM70 571v104h66v-104h-66z" />
    <glyph glyph-name="jcircumflex" unicode="&#x135;" horiz-adv-x="206" 
d="M-4 542v28l73 74h68l74 -74v-28h-38l-65 64h-10l-65 -64h-37zM-40 -171v53h73l37 36v570h66v-587l-71 -72h-105z" />
    <glyph glyph-name="kcommaaccent" unicode="&#x137;" horiz-adv-x="422" 
d="M203 -156v121h53v-101l-21 -20h-32zM326 0l-105 254l-92 -134v-120h-66v690h66v-481l182 279h74l-123 -182l134 -306h-70z" />
    <glyph glyph-name="lacute" unicode="&#x13a;" horiz-adv-x="206" 
d="M74 729v32l78 78h45v-32l-78 -78h-45zM136 0h-66v690h66v-690z" />
    <glyph glyph-name="lcaron" unicode="&#x13e;" horiz-adv-x="206" 
d="M184 568v121h53v-101l-21 -20h-32zM136 0h-66v690h66v-690z" />
    <glyph glyph-name="lcommaaccent" unicode="&#x13c;" horiz-adv-x="206" 
d="M77 -156v121h53v-101l-21 -20h-32zM136 0h-66v690h66v-690z" />
    <glyph glyph-name="nacute" unicode="&#x144;" horiz-adv-x="436" 
d="M185 535v32l78 78h45v-32l-78 -78h-45zM65 0v488h51l3 -80l80 80h102l75 -75v-413h-66v397l-40 39h-57l-82 -81v-355h-66z" />
    <glyph glyph-name="ncaron" unicode="&#x148;" horiz-adv-x="436" 
d="M193 542l-73 73v29h37l65 -65h10l65 65h38v-29l-74 -73h-68zM65 0v488h51l3 -80l80 80h102l75 -75v-413h-66v397l-40 39h-57l-82 -81v-355h-66z" />
    <glyph glyph-name="ncommaaccent" unicode="&#x146;" horiz-adv-x="436" 
d="M197 -156v121h53v-101l-21 -20h-32zM65 0v488h51l3 -80l80 80h102l75 -75v-413h-66v397l-40 39h-57l-82 -81v-355h-66z" />
    <glyph glyph-name="ohungarumlaut" unicode="&#x151;" horiz-adv-x="433" 
d="M128 535v33l78 78h34v-33l-79 -78h-33zM239 535v33l78 78h34v-33l-78 -78h-34zM130 0l-75 75v338l75 75h173l75 -75v-338l-75 -75h-173zM161 53h111l40 40v303l-40 40h-111l-40 -40v-303z" />
    <glyph glyph-name="omacron" unicode="&#x14d;" horiz-adv-x="433" 
d="M121 565v49h190v-49h-190zM130 0l-75 75v338l75 75h173l75 -75v-338l-75 -75h-173zM161 53h111l40 40v303l-40 40h-111l-40 -40v-303z" />
    <glyph glyph-name="racute" unicode="&#x155;" horiz-adv-x="301" 
d="M130 535v32l78 78h45v-32l-78 -78h-45zM65 0v488h51l3 -84l84 84h77v-58h-66l-83 -83v-347h-66z" />
    <glyph glyph-name="rcaron" unicode="&#x159;" horiz-adv-x="301" 
d="M138 542l-73 73v29h37l65 -65h10l65 65h38v-29l-74 -73h-68zM65 0v488h51l3 -84l84 84h77v-58h-66l-83 -83v-347h-66z" />
    <glyph glyph-name="rcommaaccent" unicode="&#x157;" horiz-adv-x="301" 
d="M72 -156v121h53v-101l-21 -20h-32zM65 0v488h51l3 -84l84 84h77v-58h-66l-83 -83v-347h-66z" />
    <glyph glyph-name="sacute" unicode="&#x15b;" horiz-adv-x="411" 
d="M164 535v32l78 78h45v-32l-78 -78h-45zM114 0l-66 66v76h66v-58l31 -31h115l36 36v108l-21 22h-168l-56 56v142l72 71h170l67 -66v-75h-67v58l-31 31h-108l-37 -37v-107l21 -21h168l57 -57v-142l-72 -72h-177z" />
    <glyph glyph-name="scedilla" unicode="&#x15f;" horiz-adv-x="411" 
d="M114 0l-66 66v76h66v-58l31 -31h115l36 36v108l-21 22h-168l-56 56v142l72 71h170l67 -66v-75h-67v58l-31 31h-108l-37 -37v-107l21 -21h168l57 -57v-142l-72 -72h-71v-40h38l31 -31v-54l-31 -31h-107v36h79l12 12v22l-12 12h-37l-19 19v55h-60z" />
    <glyph glyph-name="scircumflex" unicode="&#x15d;" horiz-adv-x="411" 
d="M99 542v28l73 74h68l74 -74v-28h-38l-65 64h-10l-65 -64h-37zM114 0l-66 66v76h66v-58l31 -31h115l36 36v108l-21 22h-168l-56 56v142l72 71h170l67 -66v-75h-67v58l-31 31h-108l-37 -37v-107l21 -21h168l57 -57v-142l-72 -72h-177z" />
    <glyph glyph-name="scommaaccent" unicode="&#x219;" horiz-adv-x="411" 
d="M180 -156v121h53v-101l-21 -20h-32zM114 0l-66 66v76h66v-58l31 -31h115l36 36v108l-21 22h-168l-56 56v142l72 71h170l67 -66v-75h-67v58l-31 31h-108l-37 -37v-107l21 -21h168l57 -57v-142l-72 -72h-177z" />
    <glyph glyph-name="tcaron" unicode="&#x165;" horiz-adv-x="322" 
d="M215 561v121h53v-101l-21 -20h-32zM160 0l-75 75v359h-66v54h66v147h66v-147h138v-54h-138v-341l39 -39h99v-54h-129z" />
    <glyph glyph-name="tcommaaccent" unicode="&#x163;" horiz-adv-x="322" 
d="M168 -156v121h53v-101l-21 -20h-32zM160 0l-75 75v359h-66v54h66v147h66v-147h138v-54h-138v-341l39 -39h99v-54h-129z" />
    <glyph glyph-name="ubreve" unicode="&#x16d;" horiz-adv-x="436" 
d="M135 0l-75 75v413h66v-396l40 -39h57l82 81v354h66v-488h-51l-3 81l-81 -81h-101zM151 546l-38 39v47h51v-31l14 -15h73l15 15v31h51v-47l-39 -39h-127z" />
    <glyph glyph-name="uhungarumlaut" unicode="&#x171;" horiz-adv-x="436" 
d="M135 0l-75 75v413h66v-396l40 -39h57l82 81v354h66v-488h-51l-3 81l-81 -81h-101zM127 535v33l78 78h34v-33l-79 -78h-33zM238 535v33l78 78h34v-33l-78 -78h-34z" />
    <glyph glyph-name="umacron" unicode="&#x16b;" horiz-adv-x="436" 
d="M135 0l-75 75v413h66v-396l40 -39h57l82 81v354h66v-488h-51l-3 81l-81 -81h-101zM120 565v49h190v-49h-190z" />
    <glyph glyph-name="uogonek" unicode="&#x173;" horiz-adv-x="436" 
d="M135 0l-75 75v413h66v-396l40 -39h57l82 81v354h66v-488l-67 -67v-38l15 -15h52v-36h-83l-31 31v67l63 63l-3 76l-81 -81h-101z" />
    <glyph glyph-name="uring" unicode="&#x16f;" horiz-adv-x="436" 
d="M171 525l-32 33v69l32 33h89l32 -32v-70l-32 -33h-89zM190 554h50l15 14v49l-15 14h-50l-15 -14v-49zM135 0l-75 75v413h66v-396l40 -39h57l82 81v354h66v-488h-51l-3 81l-81 -81h-101z" />
    <glyph glyph-name="zacute" unicode="&#x17a;" horiz-adv-x="349" 
d="M132 535v32l78 78h45v-32l-78 -78h-45zM28 0v42l214 392h-210v54h285v-42l-214 -392h216v-54h-291z" />
    <glyph glyph-name="zdotaccent" unicode="&#x17c;" horiz-adv-x="349" 
d="M28 0v42l214 392h-210v54h285v-42l-214 -392h216v-54h-291zM150 545l-19 19v52l19 19h48l19 -19v-52l-19 -19h-48z" />
    <glyph glyph-name="published" horiz-adv-x="633" 
d="M141 0l-81 81v528l81 81h351l81 -81v-528l-81 -81h-351zM174 53h285l49 50v484l-49 50h-285l-49 -50v-484zM198 113v464h186l58 -58v-192l-58 -58h-118v-156h-68zM266 326h87l20 21v152l-20 20h-87v-193z" />
    <glyph glyph-name="servicemark" unicode="&#x2120;" horiz-adv-x="508" 
d="M58 402l-38 38v43h44v-31l15 -15h54l14 15v68l-8 8h-87l-32 32v92l39 38h94l38 -38v-43h-44v31l-14 15h-54l-15 -15v-65l9 -8h87l31 -32v-95l-38 -38h-95zM232 402v288h62l56 -234l54 234h63v-288h-40v247l-59 -247h-40l-58 246v-246h-38z" />
    <glyph glyph-name="G.alt" horiz-adv-x="466" 
d="M141 0l-81 81v528l81 81h194l77 -77v-103h-70v80l-41 41h-126l-45 -45v-482l45 -45h108l63 63v170h-118v59h188v-351h-51l-4 63l-62 -63h-158z" />
    <glyph glyph-name="Gbreve.alt" horiz-adv-x="466" 
d="M141 0l-81 81v528l81 81h194l77 -77v-103h-70v80l-41 41h-126l-45 -45v-482l45 -45h108l63 63v170h-118v59h188v-351h-51l-4 63l-62 -63h-158zM174 750l-38 39v47h51v-31l14 -15h73l15 15v31h51v-47l-39 -39h-127z" />
    <glyph glyph-name="Gcircumflex.alt" horiz-adv-x="466" 
d="M131 746v28l73 74h68l74 -74v-28h-38l-65 64h-10l-65 -64h-37zM141 0l-81 81v528l81 81h194l77 -77v-103h-70v80l-41 41h-126l-45 -45v-482l45 -45h108l63 63v170h-118v59h188v-351h-51l-4 63l-62 -63h-158z" />
    <glyph glyph-name="Gcommaaccent.alt" horiz-adv-x="466" 
d="M212 -156v121h53v-101l-21 -20h-32zM141 0l-81 81v528l81 81h194l77 -77v-103h-70v80l-41 41h-126l-45 -45v-482l45 -45h108l63 63v170h-118v59h188v-351h-51l-4 63l-62 -63h-158z" />
    <glyph glyph-name="I.alt" horiz-adv-x="250" 
d="M160 0h-70v690h70v-690z" />
    <glyph glyph-name="Iacute.alt" horiz-adv-x="250" 
d="M82 739v32l78 78h45v-32l-78 -78h-45zM160 0h-70v690h70v-690z" />
    <glyph glyph-name="Igrave.alt" horiz-adv-x="250" 
d="M160 0h-70v690h70v-690zM122 739l-78 78v32h45l78 -78v-32h-45z" />
    <glyph glyph-name="Icircumflex.alt" horiz-adv-x="250" 
d="M18 746v28l73 74h68l74 -74v-28h-38l-65 64h-10l-65 -64h-37zM160 0h-70v690h70v-690z" />
    <glyph glyph-name="Idieresis.alt" horiz-adv-x="250" 
d="M160 750v84h56v-84h-56zM35 750v84h55v-84h-55zM160 0h-70v690h70v-690z" />
    <glyph glyph-name="Idotaccent.alt" horiz-adv-x="250" 
d="M160 0h-70v690h70v-690zM100 749l-19 19v52l19 19h48l19 -19v-52l-19 -19h-48z" />
    <glyph glyph-name="Imacron.alt" horiz-adv-x="250" 
d="M160 0h-70v690h70v-690zM31 769v49h190v-49h-190z" />
    <glyph glyph-name="Iogonek.alt" horiz-adv-x="250" 
d="M160 0h-14l-67 -67v-38l15 -15h52v-36h-83l-31 31v67l58 58v690h70v-690z" />
    <glyph glyph-name="J.alt" horiz-adv-x="434" 
d="M117 0l-81 81v181h70v-158l45 -45h103l46 45v586h70v-609l-82 -81h-171z" />
    <glyph glyph-name="Jcircumflex.alt" horiz-adv-x="434" 
d="M227 746v28l73 74h68l74 -74v-28h-38l-65 64h-10l-65 -64h-37zM117 0l-81 81v181h70v-158l45 -45h103l46 45v586h70v-609l-82 -81h-171z" />
    <glyph glyph-name="Q.alt" horiz-adv-x="484" 
d="M141 0l-81 81v528l81 81h202l81 -81v-528l-46 -46l80 -80l-44 -44l-89 89h-184zM175 59h134l45 45v482l-45 45h-134l-45 -45v-482z" />
    <glyph glyph-name="a.alt" 
d="M130 0l-75 75v338l75 75h121l76 -75l1 75h52v-488h-51l-2 76l-76 -76h-121zM161 53h77l76 75v232l-76 76h-77l-40 -40v-303z" />
    <glyph glyph-name="aacute.alt" 
d="M168 535v32l78 78h45v-32l-78 -78h-45zM130 0l-75 75v338l75 75h121l76 -75l1 75h52v-488h-51l-2 76l-76 -76h-121zM161 53h77l76 75v232l-76 76h-77l-40 -40v-303z" />
    <glyph glyph-name="agrave.alt" 
d="M130 0l-75 75v338l75 75h121l76 -75l1 75h52v-488h-51l-2 76l-76 -76h-121zM161 53h77l76 75v232l-76 76h-77l-40 -40v-303zM207 535l-78 78v32h45l78 -78v-32h-45z" />
    <glyph glyph-name="acircumflex.alt" 
d="M103 542v28l73 74h68l74 -74v-28h-38l-65 64h-10l-65 -64h-37zM130 0l-75 75v338l75 75h121l76 -75l1 75h52v-488h-51l-2 76l-76 -76h-121zM161 53h77l76 75v232l-76 76h-77l-40 -40v-303z" />
    <glyph glyph-name="adieresis.alt" 
d="M245 546v84h56v-84h-56zM120 546v84h55v-84h-55zM130 0l-75 75v338l75 75h121l76 -75l1 75h52v-488h-51l-2 76l-76 -76h-121zM161 53h77l76 75v232l-76 76h-77l-40 -40v-303z" />
    <glyph glyph-name="atilde.alt" 
d="M130 0l-75 75v338l75 75h121l76 -75l1 75h52v-488h-51l-2 76l-76 -76h-121zM161 53h77l76 75v232l-76 76h-77l-40 -40v-303zM95 542v52l38 39h64l49 -50h19l14 13v37h47v-52l-39 -39h-63l-50 50h-19l-13 -13v-37h-47z" />
    <glyph glyph-name="aring.alt" 
d="M166 525l-32 33v69l32 33h89l32 -32v-70l-32 -33h-89zM185 554h50l15 14v49l-15 14h-50l-15 -14v-49zM130 0l-75 75v338l75 75h121l76 -75l1 75h52v-488h-51l-2 76l-76 -76h-121zM161 53h77l76 75v232l-76 76h-77l-40 -40v-303z" />
    <glyph glyph-name="abreve.alt" 
d="M130 0l-75 75v338l75 75h121l76 -75l1 75h52v-488h-51l-2 76l-76 -76h-121zM161 53h77l76 75v232l-76 76h-77l-40 -40v-303zM146 546l-38 39v47h51v-31l14 -15h73l15 15v31h51v-47l-39 -39h-127z" />
    <glyph glyph-name="amacron.alt" 
d="M130 0l-75 75v338l75 75h121l76 -75l1 75h52v-488h-51l-2 76l-76 -76h-121zM161 53h77l76 75v232l-76 76h-77l-40 -40v-303zM115 565v49h190v-49h-190z" />
    <glyph glyph-name="aogonek.alt" 
d="M130 0l-75 75v338l75 75h121l76 -75l1 75h52v-488l-67 -67v-38l15 -15h52v-36h-83l-31 31v67l63 63l-2 71l-76 -76h-121zM161 53h77l76 75v232l-76 76h-77l-40 -40v-303z" />
    <glyph glyph-name="g.alt" horiz-adv-x="424" 
d="M114 -171l-71 71v124l55 55l-29 29v53l34 34l-52 52v170l71 71h281v-51h-65l38 -38v-143l-71 -71h-144l-30 -30v-32l26 -26h169l71 -71v-126l-71 -71h-212zM155 236h117l38 38v126l-37 37h-118l-37 -38v-125zM146 -119h148l38 37v90l-38 38h-148l-37 -38v-90z" />
    <glyph glyph-name="gbreve.alt" horiz-adv-x="424" 
d="M114 -171l-71 71v124l55 55l-29 29v53l34 34l-52 52v170l71 71h281v-51h-65l38 -38v-143l-71 -71h-144l-30 -30v-32l26 -26h169l71 -71v-126l-71 -71h-212zM155 236h117l38 38v126l-37 37h-118l-37 -38v-125zM146 -119h148l38 37v90l-38 38h-148l-37 -38v-90zM159 546
l-38 39v47h51v-31l14 -15h73l15 15v31h51v-47l-39 -39h-127z" />
    <glyph glyph-name="gcircumflex.alt" horiz-adv-x="424" 
d="M115 542v28l73 74h68l74 -74v-28h-38l-65 64h-10l-65 -64h-37zM114 -171l-71 71v124l55 55l-29 29v53l34 34l-52 52v170l71 71h281v-51h-65l38 -38v-143l-71 -71h-144l-30 -30v-32l26 -26h169l71 -71v-126l-71 -71h-212zM155 236h117l38 38v126l-37 37h-118l-37 -38v-125
zM146 -119h148l38 37v90l-38 38h-148l-37 -38v-90z" />
    <glyph glyph-name="gcommaaccent.alt" horiz-adv-x="424" 
d="M249 653v-121h-53v101l21 20h32zM114 -171l-71 71v124l55 55l-29 29v53l34 34l-52 52v170l71 71h281v-51h-65l38 -38v-143l-71 -71h-144l-30 -30v-32l26 -26h169l71 -71v-126l-71 -71h-212zM155 236h117l38 38v126l-37 37h-118l-37 -38v-125zM146 -119h148l38 37v90
l-38 38h-148l-37 -38v-90z" />
    <glyph glyph-name="at.alt1" horiz-adv-x="733" 
d="M64 0v581l108 109h392l109 -109v-508l-73 -73h-124l-6 71l-71 -71h-126l-76 75v185l71 70h188v134l-43 43h-97l-40 -40v-74h-70v96l76 75h165l79 -78v-428h43l37 37v464l-73 73h-329l-73 -73v-559h-67zM306 58h82l68 68v146h-150l-39 -39v-136z" />
    <glyph glyph-name="at.alt2" horiz-adv-x="709" 
d="M160 -124l-105 105v528l105 105h389l105 -105v-437l-72 -72h-126l-2 76l-76 -76h-119l-75 75v338l75 75h119l76 -75l1 75h52v-437h41l39 38v402l-70 70h-326l-70 -70v-493l70 -70h348v-52h-379zM290 53h75l76 75v232l-76 76h-75l-39 -40v-303z" />
    <glyph glyph-name="at.alt3" horiz-adv-x="733" 
d="M64 0v581l108 109h392l109 -109v-508l-73 -73h-125l-6 72l-72 -72h-118l-79 79v407l79 78h118l72 -72l6 72h50v-506h44l37 37v464l-73 73h-329l-73 -73v-559h-67zM313 58h71l72 72v304l-72 73h-71l-44 -44v-362z" />
    <glyph glyph-name="ampersand.alt" horiz-adv-x="466" 
d="M131 0l-78 77v231l64 65l-63 63v177l77 77h184l77 -77v-104h-70v81l-43 43h-112l-43 -43v-136l39 -39l189 -141v123h70v-321l-77 -76h-214zM167 57h142l43 43v95l-186 138l-43 -43v-189z" />
    <glyph glyph-name="ordfeminine.alt" horiz-adv-x="309" 
d="M92 345l-58 57v230l58 58h89l50 -50l3 50h41v-345h-41l-3 50l-50 -50h-89zM120 392h51l47 46v158l-47 47h-51l-28 -28v-195z" />
    <glyph glyph-name="zero.tabular" horiz-adv-x="490" 
d="M144 0l-81 81v528l81 81h202l81 -81v-528l-81 -81h-202zM178 59h134l45 45v482l-45 45h-134l-46 -45v-482z" />
    <glyph glyph-name="one.tabular" horiz-adv-x="490" 
d="M82 0v53h138v584h-138v53h208v-637h132v-53h-340z" />
    <glyph glyph-name="two.tabular" horiz-adv-x="490" 
d="M76 0v292l69 68h173l33 33v196l-43 43h-120l-42 -42v-79h-70v102l78 77h188l79 -79v-240l-69 -69h-173l-33 -33v-210h272v-59h-342z" />
    <glyph glyph-name="three.tabular" horiz-adv-x="490" 
d="M140 0l-79 79v114h70v-90l43 -44h137l41 42v171l-55 56h-162v59h163l54 54v149l-42 42h-136l-43 -45v-89h-70v113l79 79h204l78 -77v-189l-67 -67l67 -67v-213l-77 -77h-205z" />
    <glyph glyph-name="four.tabular" horiz-adv-x="490" 
d="M322 0v195h-281v50l100 445h66l-92 -434h207v434h70v-434h54v-61h-54v-195h-70z" />
    <glyph glyph-name="five.tabular" horiz-adv-x="490" 
d="M151 0l-77 77v116h70v-94l42 -41h125l43 43v250l-33 33h-123l-57 -57h-67v363h344v-59h-274v-235l46 46h165l69 -68v-295l-79 -79h-194z" />
    <glyph glyph-name="six.tabular" horiz-adv-x="490" 
d="M150 0l-81 81v528l81 81h201l78 -78v-108h-69v85l-43 42h-133l-46 -45v-212l46 46h170l76 -77v-262l-81 -81h-199zM184 59h131l45 45v216l-41 41h-127l-54 -53v-204z" />
    <glyph glyph-name="seven.tabular" horiz-adv-x="490" 
d="M191 0v246l168 384h-310v60h385v-50l-173 -395v-245h-70z" />
    <glyph glyph-name="eight.tabular" horiz-adv-x="490" 
d="M138 0l-77 77v214l67 67l-66 67v188l77 77h213l78 -77v-188l-67 -67l67 -67v-214l-77 -77h-215zM173 59h145l42 42v172l-56 56h-118l-55 -56v-172zM185 388h121l54 54v148l-42 42h-145l-42 -42v-148z" />
    <glyph glyph-name="nine.tabular" horiz-adv-x="490" 
d="M139 0l-78 78v114h69v-91l43 -42h134l45 45v227l-46 -46h-169l-76 76v248l81 81h199l81 -81v-528l-81 -81h-202zM171 343h128l53 54v189l-45 45h-131l-46 -45v-202z" />
    <glyph glyph-name="plus.tabular" horiz-adv-x="490" 
d="M74 316v57h143v151h58v-151h141v-57h-141v-151h-58v151h-143z" />
    <glyph glyph-name="minus.tabular" horiz-adv-x="490" 
d="M96 314v61h299v-61h-299z" />
    <glyph glyph-name="multiply.tabular" horiz-adv-x="490" 
d="M122 181l-39 38l123 123l-123 123l39 40l123 -124l122 124l40 -40l-123 -123l123 -123l-39 -38l-123 122z" />
    <glyph glyph-name="divide.tabular" horiz-adv-x="490" 
d="M213 161v85h64v-85h-64zM72 315v58h346v-58h-346zM213 441v84h64v-84h-64z" />
    <glyph glyph-name="equal.tabular" horiz-adv-x="490" 
d="M88 396v59h314v-59h-314zM88 232v58h314v-58h-314z" />
    <glyph glyph-name="greater.tabular" horiz-adv-x="490" 
d="M427 312l-347 -164v63l286 133l-286 133v64l347 -164v-65z" />
    <glyph glyph-name="less.tabular" horiz-adv-x="490" 
d="M410 148l-347 164v65l347 164v-64l-286 -133l286 -133v-63z" />
    <glyph glyph-name="numbersign.tabular" horiz-adv-x="490" 
d="M127 177v120h-72v53h72v168h-72v53h72v119h57v-119h122v119h56v-119h73v-53h-73v-168h73v-53h-73v-120h-56v120h-122v-120h-57zM184 350h122v168h-122v-168z" />
    <glyph glyph-name="dollar.tabular" horiz-adv-x="490" 
d="M149 20l-77 77v101h68v-79l43 -42h123l44 44v167l-33 33h-175l-68 68v203l78 78h61v96h64v-96h62l77 -77v-100h-68v77l-43 43h-119l-44 -44v-155l33 -33h175l68 -67v-216l-78 -78h-63v-97h-64v97h-64z" />
    <glyph glyph-name="cent.tabular" horiz-adv-x="490" 
d="M159 69l-81 81v392l81 81h62v89h63v-89h62l78 -79v-113h-68v90l-44 44h-119l-46 -46v-348l46 -46h119l44 45v93h68v-116l-78 -78h-62v-92h-63v92h-62z" />
    <glyph glyph-name="sterling.tabular" horiz-adv-x="490" 
d="M59 0v56l48 47v204h-51v61h51v241l81 81h169l79 -79v-121h-69v97l-44 44h-101l-45 -45v-218h157v-61h-157v-209l-40 -39h299v-59h-377z" />
    <glyph glyph-name="yen.tabular" horiz-adv-x="490" 
d="M72 224v50h122l-148 416h75l126 -379l129 379h68l-148 -416h123v-50h-139v-60h139v-49h-139v-115h-70v115h-138v49h138v60h-138z" />
    <glyph glyph-name="florin.tabular" horiz-adv-x="490" 
d="M79 0v59h63l45 45v258h-103v58h103v189l81 81h139v-59h-104l-46 -45v-166h143v-58h-143v-281l-82 -81h-96z" />
    <glyph glyph-name="Euro.tabular" horiz-adv-x="490" 
d="M39 381v50h45v178l82 81h187l79 -79v-117h-69v93l-44 44h-119l-46 -45v-155h191v-50h-191v-65h191v-49h-191v-163l46 -45h119l44 44v96h69v-120l-79 -79h-187l-82 81v186h-45v49h45v65h-45z" />
    <glyph glyph-name="section.tabular" horiz-adv-x="490" 
d="M146 -99l-77 77v124h70v-101l42 -42h127l43 43v199h-253l-25 26v31h348v-278l-78 -79h-197zM73 338v273l79 79h189l78 -77v-123h-70v100l-42 42h-121l-44 -43v-193h251l25 -26v-32h-345z" />
    <glyph glyph-name="space.tabular" horiz-adv-x="244" 
 />
    <glyph glyph-name="colon.tabular" horiz-adv-x="244" 
d="M82 0v105h80v-105h-80zM82 307v106h80v-106h-80z" />
    <glyph glyph-name="semicolon.tabular" horiz-adv-x="244" 
d="M83 -95v39h25l9 9v47h-34v107h79v-167l-35 -35h-44zM83 306v107h79v-107h-79z" />
    <glyph glyph-name="comma.tabular" horiz-adv-x="244" 
d="M83 -95v39h25l9 9v47h-34v107h79v-167l-35 -35h-44z" />
    <glyph glyph-name="period.tabular" horiz-adv-x="244" 
d="M82 0v105h80v-105h-80z" />
    <glyph glyph-name="parenleft.tabular" horiz-adv-x="276" 
d="M156 -56l-82 81v639l82 81h76v-58h-42l-46 -46v-593l46 -46h42v-58h-76z" />
    <glyph glyph-name="parenright.tabular" horiz-adv-x="276" 
d="M202 25l-82 -81h-76v58h42l46 46v593l-46 46h-42v58h76l82 -81v-639z" />
    <glyph glyph-name="bracketleft.tabular" horiz-adv-x="276" 
d="M76 -56v801h156v-58h-87v-685h87v-58h-156z" />
    <glyph glyph-name="bracketright.tabular" horiz-adv-x="276" 
d="M200 745v-801h-156v58h87v685h-87v58h156z" />
    <glyph glyph-name="braceleft.tabular" horiz-adv-x="276" 
d="M174 -56l-82 81v266l-32 32h-47v62h45l34 34v245l82 81h75v-58h-41l-46 -46v-236l-50 -50l50 -50v-257l46 -46h41v-58h-75z" />
    <glyph glyph-name="braceright.tabular" horiz-adv-x="276" 
d="M184 25l-82 -81h-75v58h41l46 46v257l50 50l-50 50v236l-46 46h-41v58h75l82 -81v-245l34 -34h45v-62h-47l-32 -32v-266z" />
    <glyph glyph-name="zero.numerator" horiz-adv-x="322" 
d="M93 347l-54 53v236l54 54h136l54 -54v-236l-54 -53h-136zM123 392h75l28 29v195l-28 28h-75l-27 -28v-195z" />
    <glyph glyph-name="one.numerator" horiz-adv-x="259" 
d="M29 347v45h78v253h-78v45h134v-298h74v-45h-208z" />
    <glyph glyph-name="two.numerator" horiz-adv-x="300" 
d="M34 347v138l44 45h114l20 20v67l-27 27h-68l-26 -26v-36h-56v56l52 52h129l52 -53v-111l-44 -44h-113l-20 -20v-68h176v-47h-233z" />
    <glyph glyph-name="three.numerator" horiz-adv-x="310" 
d="M87 347l-53 51v55h57v-36l26 -26h71l30 29v59l-19 19h-102v44h102l19 19v58l-27 27h-74l-26 -26v-38h-57v56l53 52h135l52 -53v-83l-33 -33l33 -33v-89l-52 -52h-135z" />
    <glyph glyph-name="four.numerator" horiz-adv-x="308" 
d="M194 347v83h-177v36l68 224h55l-61 -213h115v213h55v-213h37v-47h-37v-83h-55z" />
    <glyph glyph-name="five.numerator" horiz-adv-x="315" 
d="M92 347l-53 51v56h57v-35l25 -27h72l26 27v78l-28 28h-71l-20 -20h-61v185h229v-48h-172v-93l22 23h108l50 -51v-122l-53 -52h-131z" />
    <glyph glyph-name="six.numerator" horiz-adv-x="316" 
d="M92 347l-53 52v237l54 54h136l52 -52v-49h-52v29l-26 26h-78l-29 -29v-89l28 28h106l52 -52v-103l-53 -52h-137zM122 391h77l26 26v67l-25 25h-80l-24 -24v-68z" />
    <glyph glyph-name="seven.numerator" horiz-adv-x="261" 
d="M91 347v141l89 154h-168v48h237v-33l-100 -172v-138h-58z" />
    <glyph glyph-name="eight.numerator" horiz-adv-x="318" 
d="M88 347l-52 52v89l33 33l-33 33v83l52 53h141l53 -53v-83l-33 -33l33 -33v-89l-53 -52h-141zM122 391h74l29 29v59l-19 19h-94l-20 -19v-59zM112 542h94l19 19v58l-26 27h-80l-27 -27v-58z" />
    <glyph glyph-name="nine.numerator" horiz-adv-x="316" 
d="M86 347l-52 51v51h52v-30l27 -27h78l29 30v86l-29 -28h-105l-52 52v105l53 53h137l53 -53v-237l-54 -53h-137zM116 525h79l25 24v70l-27 27h-76l-27 -27v-69z" />
    <glyph glyph-name="zero.denominator" horiz-adv-x="322" 
d="M93 1l-54 53v236l54 54h136l54 -54v-236l-54 -53h-136zM123 46h75l28 29v195l-28 28h-75l-27 -28v-195z" />
    <glyph glyph-name="one.denominator" horiz-adv-x="259" 
d="M29 1v45h78v253h-78v45h134v-298h74v-45h-208z" />
    <glyph glyph-name="two.denominator" horiz-adv-x="300" 
d="M34 1v138l44 45h114l20 20v67l-27 27h-68l-26 -26v-36h-56v56l52 52h129l52 -53v-111l-44 -44h-113l-20 -20v-68h176v-47h-233z" />
    <glyph glyph-name="three.denominator" horiz-adv-x="310" 
d="M87 1l-53 51v55h57v-36l26 -26h71l30 29v59l-19 19h-102v44h102l19 19v58l-27 27h-74l-26 -26v-38h-57v56l53 52h135l52 -53v-83l-33 -33l33 -33v-89l-52 -52h-135z" />
    <glyph glyph-name="four.denominator" horiz-adv-x="308" 
d="M194 1v83h-177v36l68 224h55l-61 -213h115v213h55v-213h37v-47h-37v-83h-55z" />
    <glyph glyph-name="five.denominator" horiz-adv-x="315" 
d="M92 1l-53 51v56h57v-35l25 -27h72l26 27v78l-28 28h-71l-20 -20h-61v185h229v-48h-172v-93l22 23h108l50 -51v-122l-53 -52h-131z" />
    <glyph glyph-name="six.denominator" horiz-adv-x="316" 
d="M92 1l-53 52v237l54 54h136l52 -52v-49h-52v29l-26 26h-78l-29 -29v-89l28 28h106l52 -52v-103l-53 -52h-137zM122 45h77l26 26v67l-25 25h-80l-24 -24v-68z" />
    <glyph glyph-name="seven.denominator" horiz-adv-x="261" 
d="M91 1v141l89 154h-168v48h237v-33l-100 -172v-138h-58z" />
    <glyph glyph-name="eight.denominator" horiz-adv-x="318" 
d="M88 1l-52 52v89l33 33l-33 33v83l52 53h141l53 -53v-83l-33 -33l33 -33v-89l-53 -52h-141zM122 45h74l29 29v59l-19 19h-94l-20 -19v-59zM112 196h94l19 19v58l-26 27h-80l-27 -27v-58z" />
    <glyph glyph-name="nine.denominator" horiz-adv-x="316" 
d="M86 1l-52 51v51h52v-30l27 -27h78l29 30v86l-29 -28h-105l-52 52v105l53 53h137l53 -53v-237l-54 -53h-137zM116 179h79l25 24v70l-27 27h-76l-27 -27v-69z" />
    <glyph glyph-name="Eth" unicode="&#xd0;" horiz-adv-x="494" 
d="M22 311v64h57v315h274l81 -81v-528l-81 -81h-274v311h-57zM149 59h170l45 45v482l-45 45h-170v-256h100v-64h-100v-252z" />
    </font>
</defs>
</svg>
